<svg width="139" height="46" viewBox="0 0 139 46" fill="none" xmlns="http://www.w3.org/2000/svg">
<g clip-path="url(#clip0_8_283)">
<path d="M138.115 39.8972C138.115 40.454 138.012 41.0053 137.814 41.5197C137.616 42.0341 137.325 42.5013 136.958 42.8948C136.591 43.2884 136.155 43.6003 135.675 43.813C135.196 44.0257 134.683 44.1349 134.164 44.1343H4.87305C3.82515 44.1354 2.8197 43.6897 2.07785 42.8952C1.336 42.1006 0.91848 41.0222 0.917114 39.8972V6.1085C0.918479 4.98299 1.33583 3.90407 2.07754 3.10863C2.81924 2.31319 3.82467 1.86626 4.87305 1.86597H134.163C134.682 1.86597 135.196 1.97571 135.675 2.18893C136.154 2.40215 136.59 2.71468 136.957 3.10864C137.324 3.50261 137.615 3.97032 137.813 4.48504C138.011 4.99976 138.114 5.55142 138.114 6.1085L138.115 39.8972Z" fill="white"/>
<path d="M134.164 45.1199H4.87304C3.58214 45.1196 2.34407 44.5696 1.4305 43.5905C0.516916 42.6113 0.00245623 41.283 0 39.8972V6.10957C0.0019097 4.72301 0.51603 3.39389 1.42958 2.41375C2.34312 1.43362 3.5815 0.882517 4.87304 0.881348H134.163C135.455 0.883101 136.693 1.43439 137.605 2.4144C138.519 3.3944 139.033 4.72319 139.036 6.10957V39.8972C139.038 42.7779 136.848 45.1199 134.164 45.1199Z" fill="#A6A6A6"/>
<path d="M138.115 39.8972C138.115 40.454 138.012 41.0053 137.814 41.5197C137.616 42.0341 137.325 42.5013 136.958 42.8948C136.591 43.2884 136.155 43.6003 135.675 43.813C135.196 44.0257 134.683 44.1349 134.164 44.1343H4.87305C3.82515 44.1354 2.8197 43.6897 2.07785 42.8952C1.336 42.1006 0.91848 41.0222 0.917114 39.8972V6.1085C0.918479 4.98299 1.33583 3.90407 2.07754 3.10863C2.81924 2.31319 3.82467 1.86626 4.87305 1.86597H134.163C134.682 1.86597 135.196 1.97571 135.675 2.18893C136.154 2.40215 136.59 2.71468 136.957 3.10864C137.324 3.50261 137.615 3.97032 137.813 4.48504C138.011 4.99976 138.114 5.55142 138.114 6.1085L138.115 39.8972Z" fill="black"/>
<path d="M31.0456 22.7676C31.0441 22.5911 31.0495 22.4192 31.061 22.2517C31.2813 19.0381 32.2506 14.6896 29.0723 14.59C27.0454 14.3611 25.0793 15.8921 24.0468 15.8921C22.9936 15.8921 21.4037 14.6122 19.69 14.6498C17.4848 14.6863 15.4218 16.057 14.2904 18.1855C11.9554 22.5253 13.6969 28.903 15.9339 32.4109C17.0531 34.1301 18.3607 36.0473 20.0723 35.9798C21.7468 35.9067 22.3723 34.8347 24.393 34.8347C26.3953 34.8347 26.9826 35.9798 28.7281 35.9366C30.5253 35.9067 31.6568 34.2108 32.7366 32.4773C34.1307 30.3558 32.5744 27.7123 31.569 25.3761C31.2602 24.6587 31.0541 23.796 31.0456 22.7676ZM27.7482 12.2823C27.7962 12.2179 27.8434 12.1523 27.8897 12.0855C29.3503 9.97672 26.8151 7.90186 25.2215 9.90941C25.2028 9.93288 25.1842 9.95672 25.1656 9.98085C23.5407 12.0886 26.0994 14.3708 27.7482 12.2823Z" fill="white"/>
<path d="M134.164 0.881348H104.178C87.0555 0.881348 76.596 19.9373 85.6304 34.6719C89.6141 41.1688 96.6282 45.1199 104.178 45.1199H134.164C135.456 45.1187 136.694 44.5679 137.606 43.5883C138.52 42.6086 139.034 41.28 139.037 39.8939V6.10957C139.035 4.72311 138.521 3.39414 137.607 2.41408C136.694 1.434 135.456 0.882809 134.164 0.881348Z" fill="url(#paint0_linear_8_283)"/>
<path d="M54.8591 34.2706C55.0783 34.998 54.5412 35.7329 53.7905 35.7329C53.2972 35.7329 52.8623 35.4051 52.7205 34.9266L52.3139 33.5553C51.9362 32.281 50.7668 31.4085 49.4534 31.4085C48.1393 31.4085 46.9727 32.2908 46.6113 33.5707L46.2255 34.9373C46.0925 35.4082 45.6674 35.7329 45.1839 35.7329C44.4566 35.7329 43.9359 35.0213 44.1473 34.3164L47.7414 22.333C47.977 21.5476 48.6919 21.0107 49.5022 21.0107C50.3116 21.0107 51.026 21.5465 51.2623 22.3308L54.8591 34.2706ZM49.4452 29.5942C50.3633 29.5942 51.02 28.6952 50.7519 27.8058L50.1319 25.7499C50.0099 25.359 49.7806 24.441 49.4452 22.9969C49.4425 22.985 49.432 22.9765 49.42 22.9765C49.4079 22.9765 49.3974 22.9849 49.3948 22.9969C49.2585 23.6227 49.0426 24.5407 48.748 25.7499L48.1367 27.812C47.8734 28.7001 48.5298 29.5942 49.4452 29.5942ZM66.6327 30.2944C66.6327 32.0999 66.1761 33.527 65.2622 34.5746C64.444 35.5072 63.4269 35.9729 62.2141 35.9729C61.2939 35.9729 59.3906 36.9377 59.3906 37.8699V38.9245C59.3906 39.5391 58.8987 40.0373 58.2921 40.0373C57.6855 40.0373 57.1937 39.5391 57.1937 38.9245V28.6063C57.1937 27.8032 57.1797 26.9856 57.1525 26.1533C57.1341 25.5887 57.5782 25.1172 58.1358 25.1172H58.2116C58.6812 25.1172 59.0711 25.4842 59.1057 25.9584L59.1651 26.774C59.1662 26.7886 59.1781 26.7998 59.1925 26.7998C59.2022 26.7998 59.2113 26.7944 59.2162 26.786C59.9489 25.5273 61.0582 24.8981 62.5448 24.8981C63.7113 24.8981 64.6851 25.3926 65.4641 26.3828C66.2421 27.375 66.6327 28.6783 66.6327 30.2944ZM64.3945 30.3808C64.3945 29.3475 64.1781 28.4957 63.7433 27.8242C63.2683 27.1262 62.6303 26.7766 61.8307 26.7766C61.2887 26.7766 60.7961 26.9713 60.3561 27.3551C59.9151 27.7423 59.6265 28.2479 59.4915 28.8741C59.4313 29.1082 59.3971 29.3492 59.3896 29.592V31.3631C59.3896 32.1342 59.6101 32.7858 60.0511 33.319C60.4921 33.8501 61.0651 34.1167 61.7699 34.1167C62.5974 34.1167 63.2414 33.7726 63.702 33.09C64.1637 32.4053 64.3945 31.5026 64.3945 30.3808ZM78.0059 30.2944C78.0059 32.0999 77.5494 33.527 76.6353 34.5746C75.8162 35.5072 74.8001 35.9729 73.5862 35.9729C72.666 35.9729 70.7628 36.9377 70.7628 37.8699V38.9245C70.7628 39.5391 70.271 40.0373 69.6643 40.0373C69.0576 40.0373 68.5658 39.5391 68.5658 38.9245V28.6063C68.5658 27.8032 68.5518 26.9857 68.5247 26.1533C68.5062 25.5887 68.9504 25.1172 69.508 25.1172H69.5838C70.0533 25.1172 70.4432 25.4842 70.4778 25.9584L70.5373 26.774C70.5383 26.7886 70.5503 26.7998 70.5646 26.7998C70.5744 26.7998 70.5835 26.7944 70.5884 26.786C71.3201 25.5273 72.4293 24.8981 73.917 24.8981C75.0824 24.8981 76.0563 25.3926 76.8373 26.3828C77.6143 27.375 78.0059 28.6783 78.0059 30.2944ZM75.7667 30.3808C75.7667 29.3475 75.5493 28.4957 75.1144 27.8242C74.6394 27.1262 74.0036 26.7766 73.2039 26.7766C72.6619 26.7766 72.1694 26.9713 71.7272 27.3551C71.2862 27.7423 70.9987 28.2479 70.8638 28.8741C70.7968 29.1661 70.7607 29.4039 70.7607 29.592V31.3631C70.7607 32.1342 70.9822 32.7858 71.4213 33.319C71.8623 33.8489 72.4352 34.1167 73.1421 34.1167C73.9706 34.1167 74.6146 33.7726 75.0742 33.09C75.5358 32.4053 75.7667 31.5026 75.7667 30.3808ZM90.7218 31.6032C90.7218 32.8566 90.3137 33.8755 89.5027 34.662C88.6104 35.5205 87.3645 35.9509 85.7673 35.9509C84.5992 35.9509 83.6144 35.7595 82.812 35.3762C82.4403 35.1987 82.286 34.7644 82.39 34.3617C82.5557 33.7204 83.2927 33.43 83.9098 33.6501C84.5381 33.8743 85.201 33.9861 85.8982 33.9861C86.7266 33.9861 87.3707 33.7847 87.8303 33.3854C88.2908 32.9849 88.5237 32.4495 88.5237 31.7813C88.5237 31.1828 88.3311 30.6817 87.9529 30.2734C87.5727 29.8664 86.944 29.4869 86.0609 29.1384C83.66 28.177 82.4585 26.771 82.4585 24.9214C82.4585 23.7133 82.883 22.7243 83.7301 21.951C84.5771 21.1788 85.7003 20.7927 87.0976 20.7927C88.0187 20.7927 88.8264 20.9199 89.5181 21.1738C89.937 21.3275 90.1226 21.7991 89.9983 22.2324C89.8256 22.8346 89.1374 23.1095 88.5415 22.9402C88.0665 22.8051 87.561 22.7376 87.0245 22.7376C86.2496 22.7376 85.6416 22.9422 85.2067 23.3493C84.8409 23.7133 84.6554 24.1569 84.6554 24.6835C84.6554 25.2643 84.8666 25.7466 85.2871 26.125C85.6519 26.4734 86.3175 26.8529 87.28 27.26C88.4609 27.7711 89.3285 28.3663 89.884 29.0499C90.4435 29.7336 90.7218 30.5865 90.7218 31.6032ZM98.0043 25.9999C98.0043 26.49 97.6123 26.8872 97.1286 26.8872H96.7931C96.1241 26.8872 95.5829 27.4363 95.5829 28.1138V32.0413C95.5829 33.3522 96.0091 34.006 96.8645 34.006C97.3649 34.006 97.8569 34.3866 97.8736 34.8936L97.8792 35.0507C97.8921 35.4326 97.667 35.7886 97.2963 35.8583C96.9757 35.9185 96.6078 35.9486 96.1926 35.9486C95.3243 35.9486 94.6469 35.6643 94.1577 35.0957C93.6702 34.5271 93.4247 33.5745 93.4247 32.2338V27.6135C93.4247 27.2099 93.1013 26.8828 92.7037 26.8828C92.305 26.8828 91.9819 26.5556 91.9819 26.152V25.8434C91.9819 25.4399 92.305 25.1127 92.7037 25.1127C93.1013 25.1127 93.4247 24.7855 93.4247 24.3819V23.967C93.4247 23.4916 93.7277 23.0708 94.1753 22.9259C94.8712 22.7003 95.5829 23.2265 95.5829 23.967V23.9974C95.5829 24.6134 96.0749 25.1127 96.6828 25.1127H97.1286C97.6123 25.1127 98.0043 25.51 98.0043 25.9999ZM108.908 30.3376C108.908 31.9694 108.474 33.309 107.605 34.3567C106.698 35.4353 105.49 35.9729 103.985 35.9729C102.532 35.9729 101.376 35.4563 100.516 34.4242C99.6537 33.3898 99.2228 32.0867 99.2228 30.5146C99.2228 28.8696 99.6686 27.5221 100.555 26.4746C101.445 25.4258 102.642 24.9015 104.148 24.9015C105.598 24.9015 106.764 25.4192 107.646 26.4524C108.489 27.4547 108.908 28.749 108.908 30.3376ZM106.631 30.3918C106.631 29.4194 106.435 28.5853 106.042 27.8872C105.582 27.0443 104.923 26.6228 104.068 26.6228C103.188 26.6228 102.513 27.0443 102.054 27.8872C101.66 28.5853 101.464 29.4338 101.464 30.4361C101.464 31.4096 101.66 32.246 102.054 32.9418C102.529 33.7847 103.192 34.2062 104.05 34.2062C104.889 34.2062 105.548 33.7759 106.024 32.9208C106.428 32.2061 106.631 31.3664 106.631 30.3918ZM116.052 26.4857C116.052 26.8519 115.721 27.1248 115.36 27.1262C114.587 27.1262 113.989 27.4381 113.569 28.0665C113.204 28.6196 113.021 29.3188 113.021 30.1628V34.62C113.021 35.2347 112.529 35.7329 111.923 35.7329C111.316 35.7329 110.824 35.2347 110.824 34.62V28.4603C110.826 27.682 110.815 26.9039 110.794 26.126C110.779 25.5761 111.212 25.1182 111.755 25.1182C112.268 25.1182 112.69 25.5285 112.71 26.0478L112.752 27.1142C112.753 27.1338 112.77 27.1494 112.789 27.1494C112.804 27.1494 112.818 27.1392 112.824 27.1244C113.056 26.4379 113.418 25.8831 113.913 25.4667C114.372 25.0984 114.929 24.899 115.502 24.8981C115.819 24.8981 116.051 25.1774 116.051 25.4999L116.052 26.4857ZM125.878 29.9228C125.888 30.543 125.349 30.9925 124.737 30.9925H121.843C120.397 30.9925 119.084 32.4228 120.163 33.3976C120.719 33.891 121.437 34.1387 122.319 34.1387C122.927 34.1387 123.501 34.0743 124.043 33.9447C124.545 33.8242 125.085 34.109 125.193 34.6202C125.272 35.0025 125.082 35.3955 124.717 35.5209C123.922 35.7939 123.021 35.9298 122.015 35.9298C120.481 35.9298 119.278 35.4452 118.402 34.4784C117.528 33.5104 117.09 32.2095 117.09 30.5799C117.09 28.9803 117.498 27.6472 118.312 26.584C119.166 25.4491 120.318 24.8815 121.77 24.8815C123.195 24.8815 124.273 25.4491 125.006 26.584C125.586 27.4835 125.878 28.5985 125.878 29.9228ZM121.919 29.3101C122.955 29.3106 123.884 28.4013 123.356 27.4978C122.976 26.8407 122.39 26.5132 121.606 26.5132C120.888 26.5132 120.304 26.833 119.858 27.4746C119.244 28.3304 120.111 29.3092 121.155 29.3098L121.919 29.3101Z" fill="white"/>
<path d="M46.5882 15.8059C45.6847 15.8059 45.0085 15.0314 45.0085 14.116V10.4943C45.0085 9.40304 45.7912 8.44813 46.8685 8.45143C49.3879 8.45143 50.5483 9.78231 50.5483 11.9516C50.5483 14.454 49.1777 15.8059 46.5882 15.8059ZM46.9571 9.3641C46.4466 9.3641 46.0874 9.80803 46.0874 10.3253V14.1097C46.0874 14.5371 46.3951 14.8822 46.817 14.8822C48.4677 14.8822 49.4076 13.8732 49.4076 11.9837C49.4076 10.2989 48.5574 9.3641 46.9571 9.3641ZM54.1641 15.8601C52.7442 15.8601 51.8239 14.7218 51.8239 13.1763C51.8239 11.5656 52.7638 10.4173 54.2445 10.4173C55.6438 10.4173 56.5847 11.5014 56.5847 13.0911C56.5847 14.7218 55.615 15.8601 54.1641 15.8601ZM54.2054 11.2646C53.4253 11.2646 52.9256 12.0479 52.9256 13.1431C52.9256 14.2173 53.4356 15.0006 54.1951 15.0006C54.9545 15.0006 55.4646 14.1631 55.4646 13.121C55.4646 12.0589 54.9648 11.2646 54.2054 11.2646ZM64.013 10.5253C64.347 10.525 64.5872 10.8502 64.4927 11.1746L63.3013 15.2638C63.2188 15.5472 62.9619 15.7417 62.6702 15.7417C62.3754 15.7417 62.1167 15.5432 62.0368 15.2557L61.5423 13.4761C61.3866 12.9251 61.2568 12.3662 61.1535 11.8013C61.1525 11.7955 61.1474 11.7913 61.1416 11.7913C61.1355 11.7913 61.1304 11.7958 61.1296 11.8018C61.0498 12.3669 60.9003 12.933 60.7415 13.4761L60.2138 15.2613C60.1295 15.5464 59.8705 15.7417 59.5767 15.7417C59.2779 15.7417 59.0159 15.5399 58.9359 15.2483L57.8256 11.1982C57.7327 10.8596 57.9841 10.5246 58.331 10.5246C58.5764 10.5246 58.7889 10.697 58.8428 10.9394L59.301 13.0048C59.43 13.5918 59.5386 14.1458 59.629 14.6694C59.63 14.6754 59.6351 14.6797 59.6411 14.6797C59.647 14.6797 59.6521 14.6755 59.6532 14.6696C59.7327 14.2321 59.862 13.6866 60.0512 13.0159L60.6229 10.9535C60.6931 10.7005 60.9208 10.5257 61.1802 10.5257C61.4409 10.5257 61.6694 10.7022 61.7384 10.9568L62.2821 12.9628C62.4405 13.5485 62.5695 14.1234 62.6701 14.6668C62.6716 14.675 62.6785 14.6808 62.6867 14.6808C62.6951 14.6808 62.7024 14.6745 62.7035 14.666C62.7736 14.1338 62.8832 13.569 63.0312 12.9628L63.5284 10.9107C63.5832 10.6846 63.7832 10.5255 64.013 10.5253ZM70.2776 15.1948C70.2775 15.4969 70.0358 15.7417 69.7376 15.7417C69.4393 15.7417 69.1975 15.4968 69.1975 15.1946V12.7459C69.1975 11.8233 68.8677 11.361 68.2176 11.361C67.5776 11.361 67.1377 11.9516 67.1377 12.6386V15.1947C67.1377 15.4968 66.8959 15.7417 66.5977 15.7417C66.2995 15.7417 66.0577 15.4968 66.0577 15.1947V12.0158C66.0577 11.7043 66.053 11.3776 66.0408 11.033C66.0309 10.7563 66.2477 10.5235 66.521 10.5235H66.5693C66.7932 10.5235 66.9786 10.6998 66.9928 10.9261L67.0169 11.3104C67.0176 11.3208 67.0261 11.3288 67.0363 11.3288C67.0435 11.3288 67.0501 11.3248 67.0535 11.3183C67.346 10.7669 67.9321 10.4173 68.5885 10.4173C69.6087 10.4173 70.2785 11.2547 70.2785 12.6176L70.2776 15.1948ZM73.2555 15.1942C73.2555 15.4966 73.0135 15.7417 72.715 15.7417C72.4165 15.7417 72.1746 15.4966 72.1746 15.1942V8.67815C72.1746 8.37576 72.4165 8.13062 72.715 8.13062C73.0135 8.13062 73.2555 8.37576 73.2555 8.67815V15.1942ZM77.1928 15.8601C75.7739 15.8601 74.8527 14.7218 74.8527 13.1763C74.8527 11.5656 75.7924 10.4173 77.2722 10.4173C78.6726 10.4173 79.6123 11.5014 79.6123 13.0911C79.6134 14.7218 78.6427 15.8601 77.1928 15.8601ZM77.233 11.2646C76.453 11.2646 75.9532 12.0479 75.9532 13.1431C75.9532 14.2173 76.4644 15.0006 77.2217 15.0006C77.9822 15.0006 78.4913 14.1631 78.4913 13.121C78.4923 12.0589 77.9936 11.2646 77.233 11.2646ZM84.1691 15.7421C83.998 15.7418 83.8535 15.6134 83.8311 15.4415L83.7943 15.1591C83.7929 15.1488 83.7842 15.141 83.7739 15.141C83.7672 15.141 83.7608 15.1444 83.7569 15.15C83.4273 15.6274 82.9483 15.8601 82.342 15.8601C81.4713 15.8601 80.8531 15.2052 80.8531 14.3246C80.8531 13.0599 81.8561 12.3949 83.5975 12.3715C83.6499 12.3709 83.693 12.3279 83.693 12.2747C83.693 11.5877 83.354 11.2437 82.6842 11.2437C82.3898 11.2437 82.1177 11.2925 81.8658 11.3899C81.6305 11.4808 81.3421 11.3786 81.2715 11.1337C81.2261 10.9761 81.2862 10.8043 81.4306 10.7299C81.8352 10.5215 82.3154 10.4173 82.8635 10.4173C84.133 10.4173 84.774 11.1363 84.774 12.5756V14.4972C84.774 14.7522 84.7791 14.9795 84.7897 15.1813C84.8055 15.4772 84.5793 15.7425 84.2867 15.7422L84.1691 15.7421ZM83.7218 13.9485C83.7218 13.5037 83.3622 13.1252 82.9301 13.2042C82.2577 13.3272 81.9206 13.6412 81.9206 14.1952C81.9206 14.7428 82.2307 15.0105 82.6615 15.0105C83.2108 15.0105 83.7218 14.5602 83.7218 13.9485ZM90.4321 15.7417C90.1994 15.7417 90.007 15.5583 89.9927 15.3231L89.9686 14.9225C89.9679 14.9122 89.9596 14.9043 89.9495 14.9043C89.9422 14.9043 89.9355 14.9086 89.9323 14.9152C89.6215 15.5408 89.1019 15.8601 88.3775 15.8601C87.2058 15.8601 86.3382 14.7539 86.3382 13.1973C86.3382 11.5656 87.2378 10.4162 88.4661 10.4162C89.113 10.4162 89.5723 10.6495 89.8327 11.1182C89.8351 11.1225 89.8397 11.1253 89.8446 11.1253C89.8521 11.1253 89.8582 11.1191 89.8582 11.1115V8.67815C89.8582 8.37576 90.1003 8.13062 90.3987 8.13062C90.6972 8.13062 90.9392 8.37576 90.9392 8.67815V14.3356C90.9392 14.6447 90.9434 14.9416 90.9534 15.2241C90.9633 15.5043 90.7445 15.7417 90.4677 15.7417H90.4321ZM89.8582 12.6719C89.8582 11.9417 89.408 11.3189 88.7206 11.3189C87.9199 11.3189 87.4305 12.0811 87.4305 13.1542C87.4305 14.2062 87.9385 14.9264 88.699 14.9264C89.378 14.9264 89.8582 14.2926 89.8582 13.5414V12.6719ZM97.793 15.8601C96.3743 15.8601 95.4541 14.7218 95.4541 13.1763C95.4541 11.5656 96.3937 10.4173 97.8736 10.4173C99.2738 10.4173 100.213 11.5014 100.213 13.0911C100.214 14.7218 99.2451 15.8601 97.793 15.8601ZM97.8328 11.2646C97.0535 11.2646 96.554 12.0479 96.554 13.1431C96.554 14.2173 97.0646 15.0006 97.8226 15.0006C98.5834 15.0006 99.0922 14.1631 99.0922 13.121C99.094 12.0589 98.5946 11.2646 97.8328 11.2646ZM106.021 15.1942C106.021 15.4966 105.779 15.7417 105.481 15.7417C105.182 15.7417 104.94 15.4966 104.94 15.1942V12.7459C104.94 11.8233 104.61 11.361 103.96 11.361C103.321 11.361 102.881 11.9516 102.881 12.6386V15.1942C102.881 15.4966 102.639 15.7417 102.341 15.7417C102.043 15.7417 101.8 15.4966 101.8 15.1942V12.0158C101.8 11.7043 101.795 11.3776 101.783 11.033C101.773 10.7563 101.99 10.5235 102.263 10.5235H102.311C102.536 10.5235 102.721 10.6998 102.736 10.9261L102.76 11.3104C102.76 11.3208 102.768 11.3288 102.778 11.3288C102.786 11.3288 102.792 11.3248 102.796 11.3183C103.088 10.7668 103.675 10.4162 104.33 10.4162C105.35 10.4162 106.021 11.2536 106.021 12.6166V15.1942ZM113.287 10.9588C113.287 11.1992 113.094 11.3941 112.857 11.3941H112.693C112.365 11.3941 112.099 11.6635 112.099 11.9959V13.9275C112.099 14.5724 112.306 14.8943 112.727 14.8943C112.976 14.8943 113.215 15.0772 113.223 15.3294L113.226 15.4022C113.232 15.5936 113.12 15.7724 112.934 15.8068C112.779 15.8357 112.6 15.8502 112.398 15.8502C111.548 15.8502 111.039 15.3457 111.039 14.0248V11.7532C111.039 11.5549 110.879 11.3941 110.684 11.3941C110.488 11.3941 110.329 11.2334 110.329 11.035V10.8837C110.329 10.6853 110.488 10.5246 110.684 10.5246C110.879 10.5246 111.039 10.3638 111.039 10.1655V9.96067C111.039 9.7272 111.187 9.52048 111.407 9.44923C111.749 9.3382 112.099 9.5968 112.099 9.96067V9.97551C112.099 10.2782 112.341 10.5235 112.639 10.5235H112.857C113.094 10.5235 113.287 10.7184 113.287 10.9588ZM119.003 15.1953C119.003 15.4971 118.763 15.7417 118.464 15.7417C118.167 15.7417 117.925 15.4971 117.925 15.1953V12.7681C117.925 11.8344 117.596 11.362 116.945 11.362C116.386 11.362 115.864 11.7703 115.864 12.5967V15.1953C115.864 15.4971 115.622 15.7417 115.325 15.7417C115.026 15.7417 114.785 15.4971 114.785 15.1953V8.67711C114.785 8.37529 115.026 8.13062 115.325 8.13062C115.622 8.13062 115.864 8.37529 115.864 8.67711V11.2506C115.864 11.2584 115.87 11.2646 115.878 11.2646C115.882 11.2646 115.887 11.2621 115.89 11.2579C116.23 10.6939 116.721 10.4162 117.347 10.4162C118.375 10.4162 119.003 11.2746 119.003 12.6386V15.1953ZM124.898 12.8865C124.91 13.1921 124.642 13.4119 124.34 13.4119H123.406C122.426 13.4119 121.597 14.4941 122.514 14.8469C122.703 14.9198 122.918 14.9574 123.151 14.9574C123.449 14.9574 123.732 14.9241 123.997 14.8603C124.245 14.801 124.51 14.942 124.562 15.1937C124.601 15.3823 124.507 15.576 124.327 15.6376C123.937 15.7712 123.496 15.838 122.999 15.838C121.479 15.838 120.58 14.8069 120.58 13.2084C120.58 11.6087 121.501 10.4062 122.877 10.4062C124.119 10.4062 124.898 11.3941 124.898 12.8865ZM122.796 12.5856C123.389 12.5856 123.945 12.027 123.569 11.5624C123.388 11.3405 123.131 11.2116 122.802 11.2116C122.529 11.2116 122.281 11.3241 122.083 11.5177C121.629 11.962 122.165 12.5856 122.796 12.5856Z" fill="white"/>
</g>
<path d="M5 0.5H134C136.485 0.5 138.5 2.51472 138.5 5V41C138.5 43.4853 136.485 45.5 134 45.5H5C2.51472 45.5 0.5 43.4853 0.5 41V5C0.5 2.51472 2.51472 0.5 5 0.5Z" stroke="white"/>
<defs>
<linearGradient id="paint0_linear_8_283" x1="101.973" y1="45.2373" x2="101.973" y2="-114.308" gradientUnits="userSpaceOnUse">
<stop stop-color="#1A1A1A" stop-opacity="0.1"/>
<stop offset="0.123" stop-color="#212121" stop-opacity="0.151"/>
<stop offset="0.308" stop-color="#353535" stop-opacity="0.227"/>
<stop offset="0.532" stop-color="#575757" stop-opacity="0.318"/>
<stop offset="0.783" stop-color="#858585" stop-opacity="0.421"/>
<stop offset="1" stop-color="#B3B3B3" stop-opacity="0.51"/>
</linearGradient>
<clipPath id="clip0_8_283">
<path d="M0 5C0 2.23858 2.23858 0 5 0H134C136.761 0 139 2.23858 139 5V41C139 43.7614 136.761 46 134 46H5C2.23858 46 0 43.7614 0 41V5Z" fill="white"/>
</clipPath>
</defs>
</svg>
