<svg width="139" height="46" viewBox="0 0 139 46" fill="none" xmlns="http://www.w3.org/2000/svg">
<g clip-path="url(#clip0_1_410)">
<path d="M133.85 46.0001H5.15113C2.3197 46.0001 0.00311279 43.4127 0.00311279 40.2502V5.75087C0.00311279 2.58841 2.3197 0.000976562 5.15113 0.000976562H133.85C136.681 0.000976562 138.998 2.58841 138.998 5.75087V40.2502C138.998 43.4127 136.681 46.0001 133.85 46.0001Z" fill="#100F0D"/>
<path d="M133.85 0.000976562H5.15113C2.3197 0.000976562 0.00311279 2.58841 0.00311279 5.75087V40.2502C0.00311279 43.4127 2.3197 46.0001 5.15113 46.0001H133.85C136.681 46.0001 138.998 43.4127 138.998 40.2502V5.75087C138.998 2.58841 136.681 0.000976562 133.85 0.000976562ZM133.85 0.920494C136.234 0.920494 138.174 3.08754 138.174 5.75087V40.2502C138.174 42.9136 136.234 45.0806 133.85 45.0806H5.15113C2.76659 45.0806 0.827228 42.9136 0.827228 40.2502V5.75087C0.827228 3.08754 2.76659 0.920494 5.15113 0.920494H133.85Z" fill="#A2A2A1"/>
<path d="M110.103 34.5002H112.025V20.1231H110.103V34.5002ZM127.408 25.3025L125.206 31.5353H125.14L122.854 25.3025H120.785L124.213 34.0138L122.258 38.8598H124.262L129.545 25.3029L127.408 25.3025ZM116.512 32.8672C115.884 32.8672 115.006 32.5154 115.006 31.6462C115.006 30.5366 116.099 30.1112 117.042 30.1112C117.887 30.1112 118.285 30.3143 118.798 30.5919C118.649 31.9238 117.622 32.8672 116.512 32.8672ZM116.745 24.988C115.354 24.988 113.913 25.6726 113.317 27.1892L115.022 27.9843C115.387 27.1892 116.065 26.9305 116.778 26.9305C117.771 26.9305 118.781 27.5957 118.798 28.7799V28.9276C118.45 28.7057 117.704 28.3729 116.794 28.3729C114.955 28.3729 113.085 29.5008 113.085 31.6093C113.085 33.5329 114.592 34.7722 116.28 34.7722C117.572 34.7722 118.285 34.1249 118.731 33.3663H118.798V34.4767H120.653V28.9644C120.653 26.412 118.946 24.988 116.745 24.988ZM104.871 27.0526H102.139V22.1248H104.871C106.307 22.1248 107.123 23.4527 107.123 24.5887C107.123 25.7028 106.307 27.0526 104.871 27.0526ZM104.822 20.1235H100.218V34.5006H102.139V29.0539H104.822C106.951 29.0539 109.044 27.3325 109.044 24.5892C109.044 21.8463 106.951 20.1235 104.822 20.1235ZM79.7191 32.8696C78.3918 32.8696 77.2809 31.6279 77.2809 29.9241C77.2809 28.2005 78.3918 26.9413 79.7191 26.9413C81.0295 26.9413 82.0578 28.2006 82.0578 29.9241C82.0578 31.6279 81.0295 32.8696 79.7191 32.8696ZM81.9251 26.1073H81.8587C81.4276 25.5331 80.5978 25.0143 79.5534 25.0143C77.3634 25.0143 75.3565 27.1637 75.3565 29.9241C75.3565 32.6657 77.3634 34.7962 79.5534 34.7962C80.5978 34.7962 81.4276 34.2773 81.8587 33.6849H81.9251V34.3883C81.9251 36.2602 81.0295 37.2601 79.5863 37.2601C78.4091 37.2601 77.6792 36.3154 77.3803 35.5189L75.7053 36.2969C76.1859 37.5933 77.4628 39.1872 79.5864 39.1872C81.8427 39.1872 83.7502 37.7047 83.7502 34.0918V25.3106H81.9252L81.9251 26.1073ZM85.0775 34.4998H87.0008V20.1227H85.0775V34.4998ZM89.8374 29.757C89.7879 27.8672 91.1485 26.904 92.1267 26.904C92.89 26.904 93.5363 27.3303 93.7528 27.9413L89.8374 29.757ZM95.8087 28.1264C95.4439 27.0339 94.3327 25.0143 92.0603 25.0143C89.804 25.0143 87.9298 26.9966 87.9298 29.9053C87.9298 32.6473 89.7879 34.7963 92.2755 34.7963C94.2824 34.7963 95.444 33.4258 95.9253 32.6288L94.4324 31.5171C93.9346 32.3324 93.2548 32.8697 92.2755 32.8697C91.2974 32.8697 90.6004 32.3693 90.1532 31.3874L96.0078 28.6826L95.8087 28.1264ZM49.1596 26.5151V28.59H53.6048C53.4721 29.7571 53.1238 30.6092 52.5929 31.2022C51.9458 31.9245 50.934 32.7214 49.1595 32.7214C46.4225 32.7214 44.2829 30.2575 44.2829 27.2006C44.2829 24.1437 46.4225 21.6794 49.1595 21.6794C50.6358 21.6794 51.7138 22.328 52.51 23.1617L53.8208 21.6978C52.7091 20.5123 51.233 19.6045 49.1595 19.6045C45.4102 19.6045 42.2587 23.0135 42.2587 27.2006C42.2587 31.3873 45.4102 34.7963 49.1595 34.7963C51.1829 34.7963 52.7091 34.0551 53.9032 32.6658C55.1308 31.2947 55.5124 29.3681 55.5124 27.8116C55.5124 27.3304 55.4789 26.8858 55.4126 26.5151H49.1596ZM60.5668 32.8696C59.2395 32.8696 58.0949 31.6468 58.0949 29.9053C58.0949 28.1453 59.2395 26.9414 60.5668 26.9414C61.8936 26.9414 63.0382 28.1453 63.0382 29.9053C63.0382 31.6468 61.8936 32.8696 60.5668 32.8696ZM60.5668 25.0143C58.1444 25.0143 56.1708 27.0707 56.1708 29.9053C56.1708 32.7214 58.1444 34.7963 60.5668 34.7963C62.9884 34.7963 64.9623 32.7214 64.9623 29.9053C64.9623 27.0707 62.9884 25.0143 60.5668 25.0143ZM70.1555 32.8696C68.8291 32.8696 67.6842 31.6468 67.6842 29.9053C67.6842 28.1453 68.8292 26.9414 70.1555 26.9414C71.4828 26.9414 72.627 28.1453 72.627 29.9053C72.627 31.6468 71.4828 32.8696 70.1555 32.8696ZM70.1555 25.0143C67.734 25.0143 65.7604 27.0707 65.7604 29.9053C65.7604 32.7214 67.734 34.7963 70.1555 34.7963C72.578 34.7963 74.5515 32.7214 74.5515 29.9053C74.5515 27.0707 72.578 25.0143 70.1555 25.0143Z" fill="white"/>
<path d="M21.3303 22.338L10.3694 35.3326C10.3698 35.3352 10.3706 35.3375 10.371 35.3402C10.7072 36.7513 11.8611 37.7903 13.2305 37.7903C13.778 37.7903 14.292 37.625 14.7327 37.3348L14.7678 37.3118L27.1063 29.3595L21.3303 22.338Z" fill="#EB3131"/>
<path d="M32.4202 20.1256L32.4097 20.1176L27.0828 16.6685L21.0813 22.6332L27.1036 29.3588L32.4025 25.9439C33.3314 25.3838 33.9621 24.2899 33.9621 23.0285C33.9621 21.7761 33.34 20.6876 32.4202 20.1256Z" fill="#F6B60B"/>
<path d="M10.3679 10.6692C10.302 10.9406 10.2673 11.2249 10.2673 11.5201V34.4825C10.2673 34.7772 10.3016 35.0624 10.3683 35.3329L21.7076 22.6704L10.3679 10.6692Z" fill="#5778C5"/>
<path d="M21.4114 23.0013L27.0851 16.6662L14.7605 8.68505C14.3125 8.38536 13.7896 8.2124 13.2302 8.2124C11.8607 8.2124 10.7052 9.25327 10.369 10.666C10.3686 10.6674 10.3686 10.6683 10.3686 10.6695L21.4114 23.0013Z" fill="#3BAD49"/>
<path d="M48.799 11.2489H45.7954V12.079H48.0462C47.985 12.7565 47.7437 13.2883 47.3367 13.6747C46.9297 14.0611 46.41 14.2551 45.7955 14.2551C45.1214 14.2551 44.5503 13.9927 44.0822 13.4717C43.6236 12.9398 43.3904 12.2821 43.3904 11.4897C43.3904 10.6974 43.6236 10.0397 44.0822 9.50788C44.5503 8.98682 45.1214 8.72624 45.7955 8.72624C46.1414 8.72624 46.4712 8.79272 46.7736 8.9383C47.0761 9.08377 47.3189 9.28686 47.5088 9.54744L48.0799 8.90955C47.8209 8.58066 47.4927 8.32916 47.0856 8.14586C46.6786 7.96255 46.2539 7.87457 45.7954 7.87457C44.8961 7.87457 44.1336 8.22313 43.511 8.91855C42.8884 9.61567 42.5763 10.4746 42.5763 11.4898C42.5763 12.5049 42.8884 13.3657 43.511 14.0612C44.1336 14.7564 44.8961 15.1051 45.7954 15.1051C46.7397 15.1051 47.4926 14.7673 48.0718 14.0808C48.5818 13.5095 48.8424 12.7369 48.8424 11.7702C48.8424 11.6066 48.8248 11.4322 48.799 11.2489ZM49.9626 8.02895V14.9505H53.5806V14.1005H50.7589V11.9048H53.304V11.0747H50.7589V8.88072H53.5806V8.02893L49.9626 8.02895ZM58.654 8.88075V8.02895H54.3955V8.88075H56.1266V14.9505H56.9229V8.88075H58.654ZM62.5093 8.02895H61.713V14.9505H62.5093V8.02895ZM67.7655 8.88075V8.02895H63.5071V8.88075H65.2381V14.9505H66.0344V8.88075H67.7655ZM75.8012 8.92927C75.1866 8.22308 74.4338 7.87451 73.5344 7.87451C72.6336 7.87451 71.8807 8.22307 71.2661 8.91849C70.6515 9.60491 70.3492 10.4656 70.3492 11.4897C70.3492 12.5138 70.6516 13.3746 71.2661 14.0611C71.8807 14.7564 72.6336 15.1051 73.5344 15.1051C74.4257 15.1051 75.1866 14.7564 75.8012 14.0611C76.4158 13.3747 76.7182 12.5139 76.7182 11.4897C76.7182 10.4745 76.4158 9.61557 75.8012 8.92927ZM71.8373 9.50782C72.2957 8.98676 72.8588 8.72618 73.5344 8.72618C74.2085 8.72618 74.7716 8.98677 75.2221 9.50782C75.6805 10.0199 75.9057 10.6882 75.9057 11.4897C75.9057 12.2929 75.6805 12.9595 75.2221 13.4716C74.7716 13.9927 74.2085 14.255 73.5344 14.255C72.8588 14.255 72.2957 13.9927 71.8373 13.4716C71.3883 12.9487 71.1632 12.2929 71.1632 11.4897C71.1632 10.6883 71.3883 10.0307 71.8373 9.50782ZM78.6101 10.6399L78.5764 9.3047H78.6101L81.7601 14.9504H82.5918V8.02888H81.7954V12.0789L81.8292 13.4141H81.7954L78.7839 8.02888H77.8138V14.9504H78.6101V10.6399Z" fill="white" stroke="white" stroke-width="0.26666" stroke-miterlimit="10"/>
</g>
<path d="M5 0.5H134C136.485 0.5 138.5 2.51472 138.5 5V41C138.5 43.4853 136.485 45.5 134 45.5H5C2.51472 45.5 0.5 43.4853 0.5 41V5C0.5 2.51472 2.51472 0.5 5 0.5Z" stroke="white"/>
<defs>
<clipPath id="clip0_1_410">
<path d="M0 5C0 2.23858 2.23858 0 5 0H134C136.761 0 139 2.23858 139 5V41C139 43.7614 136.761 46 134 46H5C2.23858 46 0 43.7614 0 41V5Z" fill="white"/>
</clipPath>
</defs>
</svg>
