<svg width="38" height="43" viewBox="0 0 38 43" fill="none" xmlns="http://www.w3.org/2000/svg">
<path d="M37.2378 0.401611L33.9355 38.1864L19.0913 42.3896L4.28798 38.1923L0.989136 0.401611H37.2378Z" fill="#264DE4"/>
<path d="M19.1135 39.1767L31.1083 35.7803L33.9304 3.49146H19.1135V39.1767Z" fill="#2965F1"/>
<path d="M19.1135 17.5076H8.5517L8.95842 22.1424H19.1135V17.5076Z" fill="#EBEBEB"/>
<path d="M19.1135 8.12646H19.0978H7.73444L8.14695 12.7614H19.1135V8.12646Z" fill="#EBEBEB"/>
<path d="M9.16119 24.46L9.79696 31.7374L19.0926 34.373L19.1135 34.3671V29.5449L19.0936 29.5503L14.0397 28.1565L13.7166 24.46H11.2608H9.16119Z" fill="#EBEBEB"/>
<path d="M24.6858 22.1424L24.1591 28.1535L19.0978 29.5487V34.3707L28.4009 31.7373L28.4691 30.9543L29.5355 18.7522L29.6462 17.5076L30.4655 8.12646H19.0978V12.7614H25.4923L25.0794 17.5076H19.0978V22.1424H24.6858Z" fill="white"/>
</svg>
