<svg width="42" height="25" viewBox="0 0 42 25" fill="none" xmlns="http://www.w3.org/2000/svg">
<path d="M24.0908 8.45546H27.776V12.3031H29.6395C30.5107 12.2988 31.3755 12.1507 32.2004 11.8645C32.6019 11.7254 33.0506 11.5329 33.4451 11.2904C32.9249 10.5968 32.6595 9.72138 32.5723 8.85663C32.4658 7.68254 32.698 6.15364 33.4765 5.23452L33.8641 4.77719L34.3267 5.15607C35.4893 6.10996 36.4669 7.44273 36.6397 8.96272C38.0389 8.54194 39.6825 8.64179 40.9167 9.36924L41.4229 9.66789L41.1567 10.1992C40.1206 12.2764 37.9385 12.9209 35.8062 12.8068C32.615 20.9238 25.6681 24.767 17.2451 24.767C12.8931 24.767 8.90072 23.1053 6.62784 19.1622C6.49429 18.9171 6.38082 18.6612 6.2595 18.4098C5.4914 16.6741 5.23565 14.7725 5.40847 12.8826L5.46085 12.3138H8.60308V8.45814H12.2882V4.69428H19.6594V0.93042H24.0821V8.45903" fill="#394D54"/>
<mask id="mask0_18_373" style="mask-type:luminance" maskUnits="userSpaceOnUse" x="5" y="1" width="36" height="24">
<path d="M12.5689 1.2561V8.82868H9.02298V12.615H6.05408L6.02087 12.9442C5.83552 15.0069 6.18785 16.9096 6.9981 18.5364L7.27017 19.0352C7.43135 19.3343 7.62476 19.6151 7.8243 19.8892C8.02384 20.1633 8.09605 20.3145 8.22241 20.4964C10.364 22.9532 13.5569 24.1384 17.2431 24.1384C25.4065 24.1384 32.3347 20.4447 35.4008 12.1468C37.5763 12.3746 39.663 11.805 40.614 9.90908C39.0989 9.01618 37.1522 9.30245 36.0305 9.8783L39.0022 1.2561L27.3973 8.82868H23.6902V1.2561H12.5689Z" fill="white"/>
</mask>
<g mask="url(#mask0_18_373)">
<path d="M20.2829 1.5542H23.4771V4.81666H20.2829V1.5542Z" fill="#20C2EF"/>
<path d="M20.6749 4.54473V1.82568V4.54473ZM21.1539 4.54457V1.82568V4.54457ZM21.6377 4.54457V1.82568V4.54457ZM22.1218 4.54457V1.82568V4.54457ZM22.6058 4.54457V1.82568V4.54457ZM23.0845 4.54457V1.82568V4.54457Z" fill="black"/>
<path d="M20.6749 4.54473V1.82568M21.1539 4.54457V1.82568M21.6377 4.54457V1.82568M22.1218 4.54457V1.82568M22.6058 4.54457V1.82568M23.0845 4.54457V1.82568" stroke="#394D54" stroke-width="0.39144"/>
<path d="M23.9684 4.81836H27.1626V1.55606H23.9684V4.81836Z" fill="#00ACD3"/>
<path d="M24.3604 1.82612V4.54517V1.82612ZM24.8394 1.82628V4.54517V1.82628ZM25.3232 1.82628V4.54517V1.82628ZM25.8073 1.82628V4.54517V1.82628ZM26.2913 1.82628V4.54517V1.82628ZM26.77 1.82628V4.54517V1.82628Z" fill="black"/>
<path d="M24.3604 1.82612V4.54517M24.8394 1.82628V4.54517M25.3232 1.82628V4.54517M25.8073 1.82628V4.54517M26.2913 1.82628V4.54517M26.77 1.82628V4.54517" stroke="#394D54" stroke-width="0.39144"/>
<path d="M5.54089 5.31665H8.73513V8.57895H5.54089V5.31665Z" fill="#00ACD3"/>
<path d="M5.54089 9.08252H8.73513V12.345H5.54089V9.08252Z" fill="#20C2EF"/>
<path d="M5.93286 8.30889V5.58984V8.30889ZM6.41189 8.30873V5.58984V8.30873ZM6.89574 8.30873V5.58984V8.30873ZM7.37976 8.30873V5.58984V8.30873ZM7.86378 8.30873V5.58984V8.30873ZM8.34248 8.30873V5.58984V8.30873Z" fill="black"/>
<path d="M5.93286 8.30889V5.58984M6.41189 8.30873V5.58984M6.89574 8.30873V5.58984M7.37976 8.30873V5.58984M7.86378 8.30873V5.58984M8.34248 8.30873V5.58984" stroke="#394D54" stroke-width="0.39144"/>
<path d="M5.93286 12.0731V9.354V12.0731ZM6.41189 12.0729V9.354V12.0729ZM6.89574 12.0729V9.354V12.0729ZM7.37976 12.0729V9.354V12.0729ZM7.86378 12.0729V9.354V12.0729ZM8.34248 12.0729V9.354V12.0729Z" fill="black"/>
<path d="M5.93286 12.0731V9.354M6.41189 12.0729V9.354M6.89574 12.0729V9.354M7.37976 12.0729V9.354M7.86378 12.0729V9.354M8.34248 12.0729V9.354" stroke="#394D54" stroke-width="0.39144"/>
<path d="M9.22638 12.3467H12.4206V9.08438H9.22638V12.3467Z" fill="#00ACD3"/>
<path d="M9.22638 8.58081H12.4206V5.31835H9.22638V8.58081Z" fill="#20C2EF"/>
<path d="M9.61835 9.35444V12.0735V9.35444ZM10.0974 9.3546V12.0735V9.3546ZM10.5812 9.3546V12.0735V9.3546ZM11.0652 9.3546V12.0735V9.3546ZM11.5493 9.3546V12.0735V9.3546ZM12.028 9.3546V12.0735V9.3546Z" fill="black"/>
<path d="M9.61835 9.35444V12.0735M10.0974 9.3546V12.0735M10.5812 9.3546V12.0735M11.0652 9.3546V12.0735M11.5493 9.3546V12.0735M12.028 9.3546V12.0735" stroke="#394D54" stroke-width="0.39144"/>
<path d="M9.61835 5.59028V8.30933V5.59028ZM10.0974 5.59044V8.30933V5.59044ZM10.5812 5.59044V8.30933V5.59044ZM11.0652 5.59044V8.30933V5.59044ZM11.5493 5.59044V8.30933V5.59044ZM12.028 5.59044V8.30933V5.59044Z" fill="black"/>
<path d="M9.61835 5.59028V8.30933M10.0974 5.59044V8.30933M10.5812 5.59044V8.30933M11.0652 5.59044V8.30933M11.5493 5.59044V8.30933M12.028 5.59044V8.30933" stroke="#394D54" stroke-width="0.39144"/>
<path d="M12.9119 5.31665H16.1061V8.57895H12.9119V5.31665Z" fill="#00ACD3"/>
<path d="M12.9119 9.08252H16.1061V12.345H12.9119V9.08252Z" fill="#20C2EF"/>
<path d="M13.3038 8.30889V5.58984V8.30889ZM13.7829 8.30873V5.58984V8.30873ZM14.2667 8.30873V5.58984V8.30873ZM14.7507 8.30873V5.58984V8.30873ZM15.2348 8.30873V5.58984V8.30873ZM15.7135 8.30873V5.58984V8.30873Z" fill="black"/>
<path d="M13.3038 8.30889V5.58984M13.7829 8.30873V5.58984M14.2667 8.30873V5.58984M14.7507 8.30873V5.58984M15.2348 8.30873V5.58984M15.7135 8.30873V5.58984" stroke="#394D54" stroke-width="0.39144"/>
<path d="M13.3038 12.0731V9.354V12.0731ZM13.7829 12.0729V9.354V12.0729ZM14.2667 12.0729V9.354V12.0729ZM14.7507 12.0729V9.354V12.0729ZM15.2348 12.0729V9.354V12.0729ZM15.7135 12.0729V9.354V12.0729Z" fill="black"/>
<path d="M13.3038 12.0731V9.354M13.7829 12.0729V9.354M14.2667 12.0729V9.354M14.7507 12.0729V9.354M15.2348 12.0729V9.354M15.7135 12.0729V9.354" stroke="#394D54" stroke-width="0.39144"/>
<path d="M16.5974 12.3467H19.7916V9.08438H16.5974V12.3467Z" fill="#00ACD3"/>
<path d="M16.5974 8.58081H19.7916V5.31835H16.5974V8.58081Z" fill="#20C2EF"/>
<path d="M16.9893 9.35444V12.0735V9.35444ZM17.4683 9.3546V12.0735V9.3546ZM17.9522 9.3546V12.0735V9.3546ZM18.4362 9.3546V12.0735V9.3546ZM18.9202 9.3546V12.0735V9.3546ZM19.3989 9.3546V12.0735V9.3546Z" fill="black"/>
<path d="M16.9893 9.35444V12.0735M17.4683 9.3546V12.0735M17.9522 9.3546V12.0735M18.4362 9.3546V12.0735M18.9202 9.3546V12.0735M19.3989 9.3546V12.0735" stroke="#394D54" stroke-width="0.39144"/>
<path d="M16.9893 5.59028V8.30933V5.59028ZM17.4683 5.59044V8.30933V5.59044ZM17.9522 5.59044V8.30933V5.59044ZM18.4362 5.59044V8.30933V5.59044ZM18.9202 5.59044V8.30933V5.59044ZM19.3989 5.59044V8.30933V5.59044Z" fill="black"/>
<path d="M16.9893 5.59028V8.30933M17.4683 5.59044V8.30933M17.9522 5.59044V8.30933M18.4362 5.59044V8.30933M18.9202 5.59044V8.30933M19.3989 5.59044V8.30933" stroke="#394D54" stroke-width="0.39144"/>
<path d="M20.2829 5.31665H23.4771V8.57895H20.2829V5.31665Z" fill="#00ACD3"/>
<path d="M20.2829 9.08252H23.4771V12.345H20.2829V9.08252Z" fill="#20C2EF"/>
<path d="M20.6749 8.30889V5.58984V8.30889ZM21.1539 8.30873V5.58984V8.30873ZM21.6377 8.30873V5.58984V8.30873ZM22.1218 8.30873V5.58984V8.30873ZM22.6058 8.30873V5.58984V8.30873ZM23.0845 8.30873V5.58984V8.30873Z" fill="black"/>
<path d="M20.6749 8.30889V5.58984M21.1539 8.30873V5.58984M21.6377 8.30873V5.58984M22.1218 8.30873V5.58984M22.6058 8.30873V5.58984M23.0845 8.30873V5.58984" stroke="#394D54" stroke-width="0.39144"/>
<path d="M20.6749 12.0731V9.354V12.0731ZM21.1539 12.0729V9.354V12.0729ZM21.6377 12.0729V9.354V12.0729ZM22.1218 12.0729V9.354V12.0729ZM22.6058 12.0729V9.354V12.0729ZM23.0845 12.0729V9.354V12.0729Z" fill="black"/>
<path d="M20.6749 12.0731V9.354M21.1539 12.0729V9.354M21.6377 12.0729V9.354M22.1218 12.0729V9.354M22.6058 12.0729V9.354M23.0845 12.0729V9.354" stroke="#394D54" stroke-width="0.39144"/>
<path d="M23.9684 12.3467H27.1626V9.08438H23.9684V12.3467Z" fill="#00ACD3"/>
<path d="M23.9684 8.58081H27.1626V5.31835H23.9684V8.58081Z" fill="#20C2EF"/>
<path d="M24.3604 9.35444V12.0735V9.35444ZM24.8394 9.3546V12.0735V9.3546ZM25.3232 9.3546V12.0735V9.3546ZM25.8073 9.3546V12.0735V9.3546ZM26.2913 9.3546V12.0735V9.3546ZM26.77 9.3546V12.0735V9.3546Z" fill="black"/>
<path d="M24.3604 9.35444V12.0735M24.8394 9.3546V12.0735M25.3232 9.3546V12.0735M25.8073 9.3546V12.0735M26.2913 9.3546V12.0735M26.77 9.3546V12.0735" stroke="#394D54" stroke-width="0.39144"/>
<path d="M24.3604 5.59028V8.30933V5.59028ZM24.8394 5.59044V8.30933V5.59044ZM25.3232 5.59044V8.30933V5.59044ZM25.8073 5.59044V8.30933V5.59044ZM26.2913 5.59044V8.30933V5.59044ZM26.77 5.59044V8.30933V5.59044Z" fill="black"/>
<path d="M24.3604 5.59028V8.30933M24.8394 5.59044V8.30933M25.3232 5.59044V8.30933M25.8073 5.59044V8.30933M26.2913 5.59044V8.30933M26.77 5.59044V8.30933" stroke="#394D54" stroke-width="0.39144"/>
<path d="M36.0317 9.87899C36.2787 7.91753 34.8415 6.37668 33.9502 5.64526C32.923 6.85819 32.7634 10.037 34.3749 11.3752C33.4755 12.1911 31.5805 12.9306 29.6401 12.9306H5.79939C5.61081 14.9994 5.79939 24.9616 5.79939 24.9616H40.7751L40.6161 9.91126C39.101 9.01835 37.1533 9.30331 36.0317 9.87899Z" fill="#17B5EB"/>
<path d="M5.79938 15.5781V24.9615H40.7751V15.5781" fill="black" fill-opacity="0.17"/>
<path d="M18.2484 24.122C16.066 23.0643 14.8681 21.6264 14.2017 20.0569L7.57239 20.3522L10.9571 24.9616L18.2484 24.122Z" fill="#D4EDF1"/>
<path d="M36.1815 9.80624V9.81118C32.8194 14.2395 27.9964 18.1048 22.8189 20.1362C18.2003 21.9484 14.1736 21.9569 11.3953 20.5017C11.0962 20.3292 10.8028 20.1375 10.5089 19.9564C8.47204 18.5025 7.32493 16.0977 7.42132 12.9293H5.79938V24.9616H40.7751V9.15796H36.7457L36.1815 9.80624Z" fill="black" fill-opacity="0.085"/>
</g>
<path d="M7.67352 20.1926C9.95688 20.3201 12.393 20.3442 14.5184 19.6631" stroke="#394D54" stroke-width="0.853355" stroke-linecap="round"/>
<path d="M16.7869 18.5344C16.7867 18.7729 16.6938 19.0016 16.5287 19.1702C16.3636 19.3389 16.1397 19.4337 15.9062 19.4339C15.6726 19.4339 15.4485 19.3392 15.2832 19.1705C15.1179 19.0019 15.0249 18.7731 15.0247 18.5344C15.0247 18.2956 15.1175 18.0666 15.2829 17.8978C15.4482 17.7289 15.6724 17.634 15.9062 17.634C16.1399 17.6343 16.3639 17.7292 16.529 17.8981C16.6942 18.0669 16.7869 18.2958 16.7869 18.5344Z" fill="#D4EDF1"/>
<path d="M16.1436 17.9345C16.0668 17.9791 16.0144 18.0647 16.0144 18.1627C16.0144 18.308 16.1296 18.4257 16.2719 18.4257C16.3696 18.4257 16.4465 18.3704 16.4988 18.2884C16.5304 18.3668 16.5467 18.4506 16.5468 18.5354C16.5468 18.892 16.264 19.1799 15.9158 19.1799C15.5675 19.1799 15.2847 18.8911 15.2847 18.5354C15.2847 18.1797 15.5675 17.8908 15.9158 17.8908C15.994 17.8907 16.0707 17.9055 16.1436 17.9345ZM0.318909 15.7682H41.3112C40.4183 15.5364 38.4875 15.2333 38.8061 14.0298C37.1826 15.9483 33.2688 15.367 32.2816 14.4292C31.1818 16.0588 24.7778 15.4392 24.3317 14.1617C22.9526 15.8145 18.6801 15.8145 17.301 14.1617C16.8541 15.4312 10.4509 16.0517 9.35809 14.4292C8.3613 15.367 4.44746 15.9492 2.82397 14.0298C3.14256 15.2244 1.21096 15.5453 0.318909 15.7682Z" fill="#394D54"/>
</svg>
