<svg width="42" height="43" viewBox="0 0 42 43" fill="none" xmlns="http://www.w3.org/2000/svg">
<path d="M41.0346 19.8694L23.0863 1.53776C22.8405 1.28663 22.5487 1.08741 22.2276 0.951485C21.9064 0.815564 21.5622 0.745605 21.2145 0.745605C20.8669 0.745605 20.5226 0.815564 20.2015 0.951485C19.8803 1.08741 19.5885 1.28663 19.3427 1.53776L15.6171 5.34292L20.3448 10.1715C21.4445 9.7779 22.7035 10.0469 23.5796 10.9418C23.9967 11.3685 24.2878 11.9064 24.4198 12.4942C24.5518 13.0819 24.5193 13.6956 24.326 14.2654L28.8828 18.9195C29.9851 18.5311 31.2569 18.7817 32.1369 19.6831C32.4294 19.982 32.6615 20.3368 32.8198 20.7273C32.9781 21.1177 33.0595 21.5362 33.0594 21.9588C33.0594 22.3814 32.9778 22.7999 32.8194 23.1903C32.661 23.5807 32.4289 23.9354 32.1363 24.2342C31.8436 24.533 31.4963 24.77 31.114 24.9317C30.7317 25.0933 30.3219 25.1765 29.9082 25.1765C29.4944 25.1764 29.0847 25.0931 28.7024 24.9313C28.3202 24.7695 27.9729 24.5324 27.6803 24.2336C26.7554 23.2888 26.5267 21.898 26.9943 20.7341L22.7446 16.3936V27.8157C23.0531 27.9716 23.335 28.1772 23.5796 28.4245C23.8722 28.7233 24.1042 29.078 24.2625 29.4684C24.4208 29.8588 24.5023 30.2772 24.5023 30.6997C24.5023 31.1223 24.4208 31.5407 24.2625 31.9311C24.1042 32.3214 23.8722 32.6762 23.5796 32.9749C23.2871 33.2737 22.9398 33.5107 22.5576 33.6724C22.1753 33.8341 21.7657 33.9174 21.352 33.9174C20.9383 33.9174 20.5286 33.8341 20.1464 33.6724C19.7642 33.5107 19.4169 33.2737 19.1243 32.9749C18.8314 32.6763 18.5991 32.3217 18.4405 31.9313C18.282 31.5409 18.2004 31.1224 18.2004 30.6997C18.2004 30.2771 18.282 29.8586 18.4405 29.4681C18.5991 29.0777 18.8314 28.7231 19.1243 28.4245C19.4288 28.1148 19.7667 27.88 20.1559 27.7225V16.1942C19.7808 16.0367 19.4288 15.8045 19.1243 15.4922C18.682 15.041 18.3812 14.4654 18.2604 13.8389C18.1396 13.2123 18.2042 12.5633 18.446 11.9744L13.7826 7.21401L1.47533 19.771C1.22925 20.0221 1.03404 20.3202 0.900845 20.6483C0.767653 20.9765 0.699097 21.3282 0.699097 21.6835C0.699097 22.0387 0.767653 22.3904 0.900845 22.7186C1.03404 23.0467 1.22925 23.3448 1.47533 23.5959L19.4249 41.9263C19.6707 42.1774 19.9625 42.3766 20.2837 42.5125C20.6048 42.6484 20.9491 42.7184 21.2967 42.7184C21.6444 42.7184 21.9886 42.6484 22.3098 42.5125C22.631 42.3766 22.9228 42.1774 23.1685 41.9263L41.0346 23.7074C41.2807 23.4564 41.4759 23.1583 41.6091 22.8301C41.7423 22.502 41.8109 22.1502 41.8109 21.795C41.8109 21.4398 41.7423 21.088 41.6091 20.7599C41.4759 20.4317 41.2807 20.1336 41.0346 19.8826" fill="#F03C2E"/>
</svg>
