<svg width="144" height="46" viewBox="0 0 144 46" fill="none" xmlns="http://www.w3.org/2000/svg">
<path d="M5.5 5C5.5 2.51472 7.51472 0.5 10 0.5H139C141.485 0.5 143.5 2.51472 143.5 5V41C143.5 43.4853 141.485 45.5 139 45.5H10C7.51472 45.5 5.5 43.4853 5.5 41V5Z" fill="black" stroke="#F1F1F1"/>
<g clip-path="url(#clip0_103_449)">
<mask id="mask0_103_449" style="mask-type:luminance" maskUnits="userSpaceOnUse" x="0" y="14" width="49" height="33">
<path d="M0 14H48.2545V46.1697H0V14Z" fill="white"/>
</mask>
<g mask="url(#mask0_103_449)">
<path d="M35.4183 37.979C35.4183 39.4281 30.3833 40.6028 24.1724 40.6028C17.9614 40.6028 12.9264 39.4281 12.9264 37.979C12.9264 36.5299 17.9612 35.3548 24.1724 35.3548C30.3836 35.3548 35.4183 36.5314 35.4183 37.979Z" fill="#A0DCF2"/>
</g>
<mask id="mask1_103_449" style="mask-type:luminance" maskUnits="userSpaceOnUse" x="17" y="37" width="14" height="8">
<path d="M27.1932 37.88C27.2698 37.7141 27.2826 37.4583 26.5145 37.5741C26.5145 37.5741 24.4157 37.774 24.3156 39.4065L24.2678 42.5341H23.7634L23.7158 39.4065C23.6157 37.7742 21.5171 37.5741 21.5171 37.5741C20.7512 37.4583 20.7613 37.7138 20.8379 37.8798C20.0851 37.0252 18.0691 37.1357 18.0691 37.1357C17.3692 37.302 18.0191 37.6018 18.0191 37.6018C19.1182 37.8681 19.2187 38.6679 19.2187 38.6679V40.9272L19.3349 42.6739C19.5844 43.4519 20.2003 43.9119 20.8044 44.1826L27.239 44.1777C28.0173 43.8255 28.8133 43.1581 28.8133 41.898V38.6679C28.8133 38.6679 28.9132 37.8681 30.013 37.6018C30.013 37.6018 30.6622 37.3019 29.9627 37.1357C29.9627 37.1357 29.8774 37.1312 29.7355 37.1309C29.1871 37.1309 27.7919 37.2009 27.1937 37.88M21.1181 41.1V38.6348C21.1181 38.394 21.0544 38.1915 20.9454 38.0212C21.6692 38.3974 21.7177 39.34 21.7177 39.34V42.417C20.9972 42.0771 21.1181 41.0995 21.1181 41.0995M26.3166 39.3396C26.3166 39.3396 26.3651 38.3968 27.0887 38.0208C26.9799 38.191 26.9162 38.3936 26.9162 38.6344V41.0997C26.9162 41.0997 27.0368 42.0082 26.3166 42.3823V39.3396Z" fill="white"/>
</mask>
<g mask="url(#mask1_103_449)">
<path d="M35.4183 37.979C35.4183 39.4281 30.3833 40.6028 24.1724 40.6028C17.9614 40.6028 12.9264 39.4281 12.9264 37.979C12.9264 36.5299 17.9612 35.3548 24.1724 35.3548C30.3836 35.3548 35.4183 36.5314 35.4183 37.979Z" fill="#82BDE7"/>
</g>
<mask id="mask2_103_449" style="mask-type:luminance" maskUnits="userSpaceOnUse" x="0" y="14" width="49" height="33">
<path d="M0 14H48.2545V46.1697H0V14Z" fill="white"/>
</mask>
<g mask="url(#mask2_103_449)">
<path d="M11.3265 30.2635L11.0019 31.0176C11.0019 31.0176 10.9174 31.2901 11.3026 31.3384C11.7047 31.3332 11.6718 31.0822 11.6437 31.0009L11.3265 30.2635Z" fill="#A0DCF2"/>
<path d="M44.0193 27.1021L44.049 27.0041C40.7498 26.5643 37.3644 26.5598 35.314 26.6165C35.6505 25.8084 35.7519 24.8785 35.7519 23.8415C35.7519 22.3542 34.9137 21.1644 33.5529 20.259C33.7909 19.7474 34.1085 18.6109 33.2357 17.1563C33.2357 17.1563 31.6943 16.8304 28.2146 18.3839C26.8505 18.1567 25.3988 18.0444 23.945 18.0444C22.3454 18.0444 20.7291 18.1802 19.2216 18.4559C15.628 16.8213 14.0418 17.1561 14.0418 17.1561C13.0062 18.8838 13.6464 20.1601 13.8408 20.4777C12.6237 21.3534 11.8807 22.471 11.8807 23.8413C11.8807 24.876 12.0576 25.804 12.4892 26.6106C10.4234 26.5605 7.16111 26.5798 3.97766 27.0038L4.00715 27.1018C7.20736 26.6751 10.4898 26.6602 12.541 26.712C12.636 26.8788 12.7421 27.0397 12.8605 27.1975C10.8302 27.2412 7.36396 27.4135 4.04178 28.0384L4.08244 28.1345C7.43076 27.5049 10.9274 27.3368 12.938 27.296C14.1511 28.8032 16.5426 29.7769 20.7972 30.081C20.1932 30.3515 19.5775 30.8114 19.3273 31.5897C18.5045 31.8519 15.8996 32.4926 14.3365 30.7006C14.3365 30.7006 13.4617 29.6342 11.7871 29.5508C11.7871 29.5508 10.1629 29.5359 11.6747 30.2255C11.6747 30.2255 12.762 30.567 13.5117 31.8489C13.5117 31.8489 14.4902 34.0375 19.2111 33.3352V35.596C19.2111 35.596 19.1112 36.3958 18.0114 36.6621C18.0114 36.6621 17.3618 36.9621 18.0615 37.1283C18.0615 37.1283 21.1098 37.2951 21.1098 35.6293V33.1641C21.1098 33.1641 20.9891 32.1864 21.7092 31.8466V35.8987C21.7092 35.8987 21.6596 36.8648 20.9098 37.2313C20.9098 37.2313 20.4101 37.8308 21.5094 37.6644C21.5094 37.6644 23.6081 37.4646 23.7081 35.8321L23.756 31.7345H24.2602L24.3082 35.8321C24.4081 37.4644 26.5069 37.6644 26.5069 37.6644C27.606 37.8308 27.1063 37.2313 27.1063 37.2313C26.3568 36.865 26.307 35.8987 26.307 35.8987V31.8845C27.027 32.2568 26.9066 33.1671 26.9066 33.1671V35.6322C26.9066 37.2979 29.9546 37.1313 29.9546 37.1313C30.6539 36.9649 30.0049 36.6651 30.0049 36.6651C28.9053 36.397 28.8052 35.599 28.8052 35.599V32.3676C28.8052 31.1076 28.0093 30.4401 27.2309 30.0879C31.766 29.7879 33.9455 28.8112 34.949 27.2936C36.9363 27.3299 40.513 27.4914 43.9341 28.1351L43.9748 28.039C40.5731 27.3993 37.0203 27.2339 35.0126 27.1949C35.1078 27.0415 35.1907 26.8821 35.2644 26.7183C37.2985 26.6587 40.6993 26.6609 44.0114 27.1025" fill="#292929"/>
<path d="M31.3159 23.7699C32.2932 24.3602 32.8649 25.0731 32.8649 25.8409C32.8649 29.4264 28.8553 29.5237 23.9099 29.5237C18.9645 29.5237 14.9545 29.0288 14.9545 25.8423C14.9545 25.0795 15.5183 24.3712 16.4836 23.7833C18.0935 22.8037 20.8185 23.3224 23.9095 23.3224C26.9884 23.3224 29.7031 22.7984 31.3152 23.7714" fill="#F5CDB5"/>
<path d="M20.932 26.0251C20.932 27.0126 20.0978 27.8132 19.0688 27.8132C18.0398 27.8132 17.2052 27.0127 17.2052 26.0251C17.2052 25.0376 18.0398 24.2373 19.0688 24.2373C20.0978 24.2373 20.932 25.0376 20.932 26.0251Z" fill="white"/>
<path d="M20.3339 26.0477C20.3339 26.706 19.7754 27.2395 19.0918 27.2395C18.4082 27.2395 17.8497 26.706 17.8497 26.0477C17.8497 25.3895 18.4056 24.8554 19.0918 24.8554C19.7781 24.8554 20.3339 25.3892 20.3339 26.0477Z" fill="#B1645A"/>
<path d="M30.9282 26.0251C30.9282 27.0126 30.094 27.8132 29.0646 27.8132C28.0351 27.8132 27.2014 27.0127 27.2014 26.0251C27.2014 25.0376 28.0358 24.2373 29.0646 24.2373C30.0933 24.2373 30.9282 25.0376 30.9282 26.0251Z" fill="white"/>
<path d="M30.3301 26.0477C30.3301 26.706 29.7716 27.2394 29.088 27.2394C28.4044 27.2394 27.8459 26.706 27.8459 26.0477C27.8459 25.3894 28.4044 24.8553 29.088 24.8553C29.7716 24.8553 30.3301 25.3891 30.3301 26.0477ZM24.402 27.6115C24.402 27.783 24.1933 27.9221 23.936 27.9221C23.6786 27.9221 23.47 27.783 23.47 27.6115C23.47 27.4399 23.6784 27.3008 23.936 27.3008C24.1936 27.3008 24.402 27.4399 24.402 27.6115ZM22.8505 28.3971C22.8439 28.3847 22.8411 28.3716 22.8421 28.3585C22.8432 28.3454 22.8481 28.3326 22.8566 28.3207C22.865 28.3089 22.8769 28.2983 22.8916 28.2895C22.9062 28.2807 22.9233 28.274 22.9419 28.2696C22.9604 28.2652 22.9801 28.2633 22.9997 28.264C23.0194 28.2647 23.0386 28.268 23.0564 28.2737C23.0741 28.2793 23.0901 28.2873 23.1032 28.297C23.1164 28.3068 23.1265 28.3182 23.1331 28.3305C23.2528 28.5562 23.5739 28.7078 23.9322 28.7078C24.2905 28.7078 24.6113 28.5562 24.7315 28.3305C24.7381 28.3182 24.7482 28.3068 24.7614 28.297C24.7745 28.2873 24.7904 28.2794 24.8082 28.2737C24.8259 28.2681 24.8452 28.2648 24.8648 28.2641C24.8844 28.2634 24.9041 28.2653 24.9226 28.2697C24.9412 28.2741 24.9582 28.2808 24.9729 28.2896C24.9875 28.2984 24.9994 28.309 25.0078 28.3208C25.0163 28.3326 25.0212 28.3455 25.0222 28.3585C25.0233 28.3716 25.0204 28.3847 25.0139 28.3971C24.9334 28.5453 24.7863 28.6733 24.5928 28.7638C24.3992 28.8543 24.1686 28.9028 23.9322 28.9028C23.6958 28.9028 23.4651 28.8543 23.2716 28.7638C23.078 28.6733 22.931 28.5453 22.8505 28.3971Z" fill="#B1645A"/>
<path d="M12.5194 29.819C12.5194 29.902 12.3737 29.9688 12.1943 29.9688C12.0149 29.9688 11.8695 29.9018 11.8695 29.819C11.8695 29.7362 12.0147 29.6689 12.1943 29.6689C12.3739 29.6689 12.5194 29.7359 12.5194 29.819ZM13.4192 30.1519C13.4192 30.2348 13.2736 30.302 13.0942 30.302C12.9148 30.302 12.7694 30.235 12.7694 30.1519C12.7694 30.0688 12.9146 30.002 13.0942 30.002C13.2738 30.002 13.4192 30.0691 13.4192 30.1519ZM13.9692 30.5838C13.9692 30.6664 13.824 30.7336 13.6442 30.7336C13.4644 30.7336 13.3196 30.6666 13.3196 30.5838C13.3196 30.501 13.4648 30.4337 13.6442 30.4337C13.8236 30.4337 13.9692 30.5007 13.9692 30.5838ZM14.4685 31.0838C14.4685 31.1667 14.3233 31.2339 14.1439 31.2339C13.9646 31.2339 13.8189 31.1669 13.8189 31.0838C13.8189 31.0006 13.9641 30.9336 14.1439 30.9336C14.3238 30.9336 14.4685 31.0006 14.4685 31.0838ZM15.0186 31.5518C15.0186 31.6345 14.8733 31.7017 14.6937 31.7017C14.5141 31.7017 14.3687 31.6347 14.3687 31.5518C14.3687 31.469 14.5143 31.4017 14.6937 31.4017C14.8731 31.4017 15.0186 31.4687 15.0186 31.5518ZM15.7685 31.9514C15.7685 32.0344 15.6233 32.1016 15.4435 32.1016C15.2636 32.1016 15.1189 32.0345 15.1189 31.9514C15.1189 31.8683 15.2641 31.8016 15.4435 31.8016C15.6229 31.8016 15.7685 31.8686 15.7685 31.9514Z" fill="#C5E6DA"/>
<path d="M16.8181 32.2181C16.8181 32.3008 16.6729 32.3679 16.4933 32.3679C16.3136 32.3679 16.1682 32.3009 16.1682 32.2181C16.1682 32.1353 16.3134 32.068 16.4933 32.068C16.6731 32.068 16.8181 32.135 16.8181 32.2181Z" fill="#C5E6DA"/>
<path d="M17.8626 32.2181C17.8626 32.3008 17.7174 32.3679 17.5378 32.3679C17.3582 32.3679 17.2128 32.3009 17.2128 32.2181C17.2128 32.1353 17.358 32.068 17.5378 32.068C17.7177 32.068 17.8626 32.135 17.8626 32.2181Z" fill="#C5E6DA"/>
<path d="M18.9229 32.1021C18.9229 32.185 18.7777 32.2522 18.5981 32.2522C18.4185 32.2522 18.2731 32.1852 18.2731 32.1021C18.2731 32.019 18.4183 31.9519 18.5981 31.9519C18.778 31.9519 18.9229 32.019 18.9229 32.1021Z" fill="#C5E6DA"/>
</g>
<path d="M58.1565 24.291C59.394 24.291 60.8036 24.0863 62.4146 23.6775V26.3123C62.0569 26.3977 61.545 26.4923 60.8801 26.5935C61.0849 26.9858 61.1873 27.3525 61.1873 27.693C61.1873 28.7843 60.6889 29.739 59.691 30.558C58.753 31.3457 57.3897 31.8572 55.893 31.983C54.8805 32.085 54.3585 32.4518 54.3585 33.0825C54.3585 33.3045 54.525 33.5325 54.8569 33.7477C55.2911 34.0717 55.9312 34.2765 56.775 34.3612C60.4312 34.7362 62.2616 35.751 62.2616 37.4047C62.2616 40.0478 59.8957 41.3693 55.1741 41.3693C53.2301 41.3693 51.6304 41.139 50.3782 40.6793C48.8032 40.0995 48 39.1793 48 37.9418C48 36.5168 49.1891 35.529 51.5662 35.0003V34.9493C50.6966 34.5915 50.2612 34.0455 50.2612 33.3128C50.2612 32.358 50.6708 31.7603 51.4988 31.5225V31.4715C50.6798 31.284 49.9519 30.858 49.3118 30.1928C48.5951 29.4765 48.2374 28.7093 48.2374 27.8903C48.2374 26.6625 48.8899 25.6403 50.1949 24.8213C51.4134 24.0622 53.0275 23.6496 54.6949 23.6708C55.9194 23.6657 57.1241 23.8774 58.1858 24.2843M52.4314 27.9158C52.4314 29.0933 53.2369 29.6805 54.8479 29.6805C56.4082 29.6805 57.1879 29.0835 57.1879 27.8903C57.1879 27.3953 57.0079 26.9693 56.6512 26.6115C56.217 26.2192 55.6162 26.0235 54.8479 26.0235C53.2369 26.0235 52.4314 26.6528 52.4314 27.9158ZM58.3399 37.7377C58.3399 36.8678 57.2655 36.4328 55.1168 36.4328C53.0445 36.4328 52.0095 36.8843 52.0095 37.788C52.0095 38.6745 53.1345 39.1178 55.3845 39.1178C57.3532 39.1178 58.3399 38.6572 58.3399 37.7377ZM66.7447 21.81C66.0022 21.81 65.3633 21.6225 64.8266 21.2475C64.3235 20.8867 64.0487 20.4103 64.0594 19.9178C64.0594 19.389 64.3148 18.9375 64.8266 18.5625C65.3633 18.1875 66.0034 18 66.7447 18C67.4614 18 68.0745 18.1875 68.5864 18.5625C69.123 18.9375 69.3919 19.3898 69.3919 19.9178C69.3963 20.1639 69.3274 20.4082 69.1891 20.6365C69.0508 20.8647 68.846 21.0724 68.5864 21.2475C68.0745 21.6225 67.4614 21.81 66.7447 21.81ZM64.5577 35.16C64.6084 34.8187 64.6342 34.239 64.6342 33.42V25.4678L64.5577 23.805H68.8822C68.8316 24.129 68.8057 24.666 68.8057 25.416V33.2685L68.8822 35.1615H64.5465M76.9215 23.805H80.2594V26.286C80.016 26.2828 79.7729 26.2743 79.5304 26.2605L78.5707 26.235H76.9215V30.9922C76.9215 32.1345 77.484 32.706 78.609 32.706C79.3752 32.7114 80.1254 32.5595 80.7577 32.271V34.821C79.8127 35.1623 78.6731 35.3325 77.3434 35.3325C75.4759 35.3325 74.1844 34.8825 73.4689 34.0028C72.9322 33.3375 72.6634 32.289 72.6634 30.8573V26.2793H72.7016V26.2283L72.1256 26.2028C71.6885 26.2086 71.2525 26.2341 70.8206 26.2793V23.7983H72.6994V22.8008C72.6994 22.323 72.6611 21.9398 72.5846 21.6495H77.0351C76.9586 21.9735 76.9204 22.3395 76.9204 22.749V23.7975M90.5329 23.7285C89.4326 23.7285 88.2829 23.9835 87.0791 24.4958V20.0198L87.1556 18.1013H82.7816C82.8581 18.3743 82.8964 19.0132 82.8964 20.0198V33.5497L82.7816 35.1608H87.2321C87.2321 35.1098 87.2062 34.9058 87.1556 34.5458L87.0791 33.5483V27.2588C87.9746 26.6963 88.8454 26.415 89.6891 26.415C90.6611 26.415 91.4025 26.739 91.9144 27.387C92.2969 27.8985 92.4904 28.5383 92.4904 29.3055L92.4521 32.7585C92.4521 33.3382 92.388 34.1385 92.2609 35.163H96.9026C96.7901 34.737 96.7496 33.9525 96.7496 32.8102V29.3063C96.7496 27.8228 96.2512 26.5613 95.2534 25.521C94.1284 24.321 92.5534 23.7308 90.534 23.7308M105.276 35.2635C103.256 35.2635 101.759 34.6665 100.776 33.4733C100.009 32.5013 99.6251 31.2233 99.6251 29.6633V26.1593L99.4721 23.8065H104.076C103.999 24.1815 103.947 24.984 103.923 26.211L103.884 29.664C103.884 30.636 104.051 31.335 104.383 31.761C104.765 32.2898 105.47 32.5538 106.493 32.5538C107.21 32.5538 108.015 32.2725 108.91 31.71V25.41C108.907 25.0769 108.881 24.7441 108.833 24.4125L108.757 23.799H113.207C113.157 24.0893 113.131 24.6263 113.131 25.41V33.2438L113.207 35.1623H109.045V34.2338C107.868 34.9088 106.615 35.2568 105.285 35.2568M124.151 35.2313C123.502 35.241 122.857 35.1568 122.261 34.9846C121.665 34.8125 121.132 34.5563 120.699 34.2338V35.1547H116.632C116.708 34.8645 116.747 34.3275 116.747 33.5437V20.0213L116.632 18.1028H121.006C120.954 18.4028 120.929 19.0492 120.929 20.0213V24.4718C122.106 23.9768 123.258 23.7218 124.383 23.7218C126.403 23.7218 127.99 24.3188 129.142 25.512C130.114 26.5523 130.6 27.8145 130.6 29.2973C130.6 30.8145 130.088 32.136 129.065 33.2618C127.828 34.5743 126.201 35.2313 124.155 35.2313M123.579 26.4075C122.735 26.4075 121.852 26.6888 120.932 27.2513V31.6838C121.751 32.2125 122.556 32.4765 123.348 32.4765C124.346 32.4765 125.1 32.1015 125.611 31.377C126.021 30.7972 126.226 30.1065 126.226 29.3055C126.226 27.378 125.344 26.4158 123.579 26.4158" fill="white"/>
<path d="M51.1982 10.5156L52.873 4.89062H54.5039L52.0283 12H50.9541L51.1982 10.5156ZM49.6553 4.89062L51.3252 10.5156L51.5791 12H50.4951L48.0342 4.89062H49.6553ZM56.0645 6.7168V12H54.6533V6.7168H56.0645ZM54.5654 5.33984C54.5654 5.13477 54.637 4.96549 54.7803 4.83203C54.9235 4.69857 55.1156 4.63184 55.3564 4.63184C55.5941 4.63184 55.7845 4.69857 55.9277 4.83203C56.0742 4.96549 56.1475 5.13477 56.1475 5.33984C56.1475 5.54492 56.0742 5.71419 55.9277 5.84766C55.7845 5.98112 55.5941 6.04785 55.3564 6.04785C55.1156 6.04785 54.9235 5.98112 54.7803 5.84766C54.637 5.71419 54.5654 5.54492 54.5654 5.33984ZM59.1582 12.0977C58.748 12.0977 58.3802 12.0326 58.0547 11.9023C57.7292 11.7689 57.4525 11.585 57.2246 11.3506C57 11.1162 56.8275 10.8444 56.707 10.5352C56.5866 10.2227 56.5264 9.89062 56.5264 9.53906V9.34375C56.5264 8.94336 56.5833 8.57715 56.6973 8.24512C56.8112 7.91309 56.974 7.625 57.1855 7.38086C57.4004 7.13672 57.6608 6.94954 57.9668 6.81934C58.2728 6.68587 58.6178 6.61914 59.002 6.61914C59.3763 6.61914 59.7083 6.68099 59.998 6.80469C60.2878 6.92839 60.5303 7.10417 60.7256 7.33203C60.9242 7.5599 61.0739 7.83333 61.1748 8.15234C61.2757 8.4681 61.3262 8.81966 61.3262 9.20703V9.79297H57.127V8.85547H59.9443V8.74805C59.9443 8.55273 59.9085 8.37858 59.8369 8.22559C59.7686 8.06934 59.6644 7.94564 59.5244 7.85449C59.3844 7.76335 59.2054 7.71777 58.9873 7.71777C58.8018 7.71777 58.6423 7.75846 58.5088 7.83984C58.3753 7.92122 58.2663 8.03516 58.1816 8.18164C58.1003 8.32812 58.0384 8.50065 57.9961 8.69922C57.957 8.89453 57.9375 9.10938 57.9375 9.34375V9.53906C57.9375 9.75065 57.9668 9.94596 58.0254 10.125C58.0872 10.304 58.1735 10.4587 58.2842 10.5889C58.3981 10.7191 58.5348 10.82 58.6943 10.8916C58.8571 10.9632 59.041 10.999 59.2461 10.999C59.5 10.999 59.736 10.9502 59.9541 10.8525C60.1755 10.7516 60.3659 10.6003 60.5254 10.3984L61.209 11.1406C61.0983 11.3001 60.9469 11.4531 60.7549 11.5996C60.5661 11.7461 60.3382 11.8665 60.0713 11.9609C59.8044 12.0521 59.5 12.0977 59.1582 12.0977ZM63.1357 10.6328L64.2344 6.7168H65.1279L64.8398 8.25488L63.7412 12H62.9941L63.1357 10.6328ZM62.5791 6.7168L63.3652 10.6279L63.4385 12H62.5596L61.2217 6.7168H62.5791ZM66.1338 10.5645L66.9004 6.7168H68.2627L66.9248 12H66.0508L66.1338 10.5645ZM65.25 6.7168L66.3438 10.6035L66.4951 12H65.7432L64.6445 8.25977L64.3662 6.7168H65.25ZM73.0488 6.7168V7.71289H69.9727V6.7168H73.0488ZM70.7344 5.41309H72.1406V10.4082C72.1406 10.5612 72.1602 10.6784 72.1992 10.7598C72.2415 10.8411 72.3034 10.8981 72.3848 10.9307C72.4661 10.96 72.5687 10.9746 72.6924 10.9746C72.7803 10.9746 72.8584 10.9714 72.9268 10.9648C72.9984 10.9551 73.0586 10.9453 73.1074 10.9355L73.1123 11.9707C72.9919 12.0098 72.8617 12.0407 72.7217 12.0635C72.5817 12.0863 72.4271 12.0977 72.2578 12.0977C71.9486 12.0977 71.6784 12.0472 71.4473 11.9463C71.2194 11.8421 71.0436 11.6761 70.9199 11.4482C70.7962 11.2204 70.7344 10.9209 70.7344 10.5498V5.41309ZM74.7217 4.5V12H73.3154V4.5H74.7217ZM74.5215 9.17285H74.1357C74.139 8.80501 74.1878 8.46647 74.2822 8.15723C74.3766 7.84473 74.5117 7.57454 74.6875 7.34668C74.8633 7.11556 75.0732 6.93652 75.3174 6.80957C75.5648 6.68262 75.8382 6.61914 76.1377 6.61914C76.3981 6.61914 76.6341 6.65658 76.8457 6.73145C77.0605 6.80306 77.2445 6.92025 77.3975 7.08301C77.5537 7.24251 77.6742 7.45247 77.7588 7.71289C77.8434 7.97331 77.8857 8.28906 77.8857 8.66016V12H76.4697V8.65039C76.4697 8.41602 76.4355 8.2321 76.3672 8.09863C76.3021 7.96191 76.2061 7.86589 76.0791 7.81055C75.9554 7.75195 75.8024 7.72266 75.6201 7.72266C75.4183 7.72266 75.2458 7.76009 75.1025 7.83496C74.9626 7.90983 74.8503 8.014 74.7656 8.14746C74.681 8.27767 74.6191 8.43066 74.5801 8.60645C74.541 8.78223 74.5215 8.97103 74.5215 9.17285ZM80.8867 12.0977C80.4766 12.0977 80.1087 12.0326 79.7832 11.9023C79.4577 11.7689 79.181 11.585 78.9531 11.3506C78.7285 11.1162 78.556 10.8444 78.4355 10.5352C78.3151 10.2227 78.2549 9.89062 78.2549 9.53906V9.34375C78.2549 8.94336 78.3118 8.57715 78.4258 8.24512C78.5397 7.91309 78.7025 7.625 78.9141 7.38086C79.1289 7.13672 79.3893 6.94954 79.6953 6.81934C80.0013 6.68587 80.3464 6.61914 80.7305 6.61914C81.1048 6.61914 81.4368 6.68099 81.7266 6.80469C82.0163 6.92839 82.2588 7.10417 82.4541 7.33203C82.6527 7.5599 82.8024 7.83333 82.9033 8.15234C83.0042 8.4681 83.0547 8.81966 83.0547 9.20703V9.79297H78.8555V8.85547H81.6729V8.74805C81.6729 8.55273 81.637 8.37858 81.5654 8.22559C81.4971 8.06934 81.3929 7.94564 81.2529 7.85449C81.113 7.76335 80.9339 7.71777 80.7158 7.71777C80.5303 7.71777 80.3708 7.75846 80.2373 7.83984C80.1038 7.92122 79.9948 8.03516 79.9102 8.18164C79.8288 8.32812 79.7669 8.50065 79.7246 8.69922C79.6855 8.89453 79.666 9.10938 79.666 9.34375V9.53906C79.666 9.75065 79.6953 9.94596 79.7539 10.125C79.8158 10.304 79.902 10.4587 80.0127 10.5889C80.1266 10.7191 80.2633 10.82 80.4229 10.8916C80.5856 10.9632 80.7695 10.999 80.9746 10.999C81.2285 10.999 81.4645 10.9502 81.6826 10.8525C81.904 10.7516 82.0944 10.6003 82.2539 10.3984L82.9375 11.1406C82.8268 11.3001 82.6755 11.4531 82.4834 11.5996C82.2946 11.7461 82.0667 11.8665 81.7998 11.9609C81.5329 12.0521 81.2285 12.0977 80.8867 12.0977ZM87.5283 10.999C87.7008 10.999 87.8538 10.9665 87.9873 10.9014C88.1208 10.833 88.2249 10.7386 88.2998 10.6182C88.3779 10.4945 88.4186 10.3496 88.4219 10.1836H89.7451C89.7419 10.5547 89.6426 10.8851 89.4473 11.1748C89.252 11.4613 88.9899 11.6875 88.6611 11.8535C88.3324 12.0163 87.9645 12.0977 87.5576 12.0977C87.1475 12.0977 86.7894 12.0293 86.4834 11.8926C86.1807 11.7559 85.9284 11.5671 85.7266 11.3262C85.5247 11.082 85.3734 10.7988 85.2725 10.4766C85.1715 10.151 85.1211 9.80273 85.1211 9.43164V9.29004C85.1211 8.91569 85.1715 8.56738 85.2725 8.24512C85.3734 7.9196 85.5247 7.63639 85.7266 7.39551C85.9284 7.15137 86.1807 6.96094 86.4834 6.82422C86.7861 6.6875 87.141 6.61914 87.5479 6.61914C87.9808 6.61914 88.36 6.70215 88.6855 6.86816C89.0143 7.03418 89.2715 7.27181 89.457 7.58105C89.6458 7.88704 89.7419 8.25 89.7451 8.66992H88.4219C88.4186 8.49414 88.3812 8.33464 88.3096 8.19141C88.2412 8.04818 88.1403 7.93424 88.0068 7.84961C87.8766 7.76172 87.7155 7.71777 87.5234 7.71777C87.3184 7.71777 87.1507 7.76172 87.0205 7.84961C86.8903 7.93424 86.7894 8.05143 86.7178 8.20117C86.6462 8.34766 86.5957 8.5153 86.5664 8.7041C86.5404 8.88965 86.5273 9.08496 86.5273 9.29004V9.43164C86.5273 9.63672 86.5404 9.83366 86.5664 10.0225C86.5924 10.2113 86.6413 10.3789 86.7129 10.5254C86.7878 10.6719 86.8903 10.7874 87.0205 10.8721C87.1507 10.9567 87.32 10.999 87.5283 10.999ZM89.8359 9.41211V9.30957C89.8359 8.9222 89.8913 8.56576 90.002 8.24023C90.1126 7.91146 90.2738 7.62663 90.4854 7.38574C90.6969 7.14486 90.9574 6.95768 91.2666 6.82422C91.5758 6.6875 91.9307 6.61914 92.3311 6.61914C92.7314 6.61914 93.0879 6.6875 93.4004 6.82422C93.7129 6.95768 93.9749 7.14486 94.1865 7.38574C94.4014 7.62663 94.5641 7.91146 94.6748 8.24023C94.7855 8.56576 94.8408 8.9222 94.8408 9.30957V9.41211C94.8408 9.79622 94.7855 10.1527 94.6748 10.4814C94.5641 10.807 94.4014 11.0918 94.1865 11.3359C93.9749 11.5768 93.7145 11.764 93.4053 11.8975C93.096 12.0309 92.7412 12.0977 92.3408 12.0977C91.9404 12.0977 91.584 12.0309 91.2715 11.8975C90.9622 11.764 90.7002 11.5768 90.4854 11.3359C90.2738 11.0918 90.1126 10.807 90.002 10.4814C89.8913 10.1527 89.8359 9.79622 89.8359 9.41211ZM91.2422 9.30957V9.41211C91.2422 9.63346 91.2617 9.84017 91.3008 10.0322C91.3398 10.2243 91.4017 10.3936 91.4863 10.54C91.5742 10.6833 91.6882 10.7956 91.8281 10.877C91.9681 10.9583 92.139 10.999 92.3408 10.999C92.5361 10.999 92.7038 10.9583 92.8438 10.877C92.9837 10.7956 93.096 10.6833 93.1807 10.54C93.2653 10.3936 93.3271 10.2243 93.3662 10.0322C93.4085 9.84017 93.4297 9.63346 93.4297 9.41211V9.30957C93.4297 9.09473 93.4085 8.8929 93.3662 8.7041C93.3271 8.51204 93.2637 8.34277 93.1758 8.19629C93.0911 8.04655 92.9788 7.92936 92.8389 7.84473C92.6989 7.76009 92.5296 7.71777 92.3311 7.71777C92.1325 7.71777 91.9632 7.76009 91.8232 7.84473C91.6865 7.92936 91.5742 8.04655 91.4863 8.19629C91.4017 8.34277 91.3398 8.51204 91.3008 8.7041C91.2617 8.8929 91.2422 9.09473 91.2422 9.30957ZM98.3252 10.8477V4.5H99.7412V12H98.4668L98.3252 10.8477ZM94.9854 9.42188V9.31934C94.9854 8.91569 95.0309 8.54948 95.1221 8.2207C95.2132 7.88867 95.3467 7.60384 95.5225 7.36621C95.6982 7.12858 95.9147 6.94466 96.1719 6.81445C96.429 6.68424 96.722 6.61914 97.0508 6.61914C97.36 6.61914 97.6302 6.68424 97.8613 6.81445C98.0957 6.94466 98.2943 7.13021 98.457 7.37109C98.623 7.60872 98.7565 7.8903 98.8574 8.21582C98.9583 8.53809 99.0316 8.89128 99.0771 9.27539V9.5C99.0316 9.86784 98.9583 10.2096 98.8574 10.5254C98.7565 10.8411 98.623 11.1178 98.457 11.3555C98.2943 11.5898 98.0957 11.7721 97.8613 11.9023C97.627 12.0326 97.3535 12.0977 97.041 12.0977C96.7122 12.0977 96.4193 12.0309 96.1621 11.8975C95.9082 11.764 95.6934 11.5768 95.5176 11.3359C95.3451 11.0951 95.2132 10.8118 95.1221 10.4863C95.0309 10.1608 94.9854 9.80599 94.9854 9.42188ZM96.3916 9.31934V9.42188C96.3916 9.63997 96.4079 9.84342 96.4404 10.0322C96.4762 10.221 96.5332 10.3887 96.6113 10.5352C96.6927 10.6784 96.7969 10.7907 96.9238 10.8721C97.054 10.9502 97.2119 10.9893 97.3975 10.9893C97.6383 10.9893 97.8369 10.9355 97.9932 10.8281C98.1494 10.7174 98.2682 10.5661 98.3496 10.374C98.4342 10.182 98.4831 9.96061 98.4961 9.70996V9.07031C98.4863 8.86523 98.457 8.68132 98.4082 8.51855C98.3626 8.35254 98.2943 8.21094 98.2031 8.09375C98.1152 7.97656 98.0046 7.88542 97.8711 7.82031C97.7409 7.75521 97.5863 7.72266 97.4072 7.72266C97.2249 7.72266 97.0687 7.76497 96.9385 7.84961C96.8083 7.93099 96.7025 8.04329 96.6211 8.18652C96.543 8.32975 96.4844 8.49902 96.4453 8.69434C96.4095 8.88639 96.3916 9.09473 96.3916 9.31934ZM102.771 12.0977C102.361 12.0977 101.993 12.0326 101.668 11.9023C101.342 11.7689 101.066 11.585 100.838 11.3506C100.613 11.1162 100.441 10.8444 100.32 10.5352C100.2 10.2227 100.14 9.89062 100.14 9.53906V9.34375C100.14 8.94336 100.197 8.57715 100.311 8.24512C100.424 7.91309 100.587 7.625 100.799 7.38086C101.014 7.13672 101.274 6.94954 101.58 6.81934C101.886 6.68587 102.231 6.61914 102.615 6.61914C102.99 6.61914 103.322 6.68099 103.611 6.80469C103.901 6.92839 104.144 7.10417 104.339 7.33203C104.537 7.5599 104.687 7.83333 104.788 8.15234C104.889 8.4681 104.939 8.81966 104.939 9.20703V9.79297H100.74V8.85547H103.558V8.74805C103.558 8.55273 103.522 8.37858 103.45 8.22559C103.382 8.06934 103.278 7.94564 103.138 7.85449C102.998 7.76335 102.819 7.71777 102.601 7.71777C102.415 7.71777 102.256 7.75846 102.122 7.83984C101.989 7.92122 101.88 8.03516 101.795 8.18164C101.714 8.32812 101.652 8.50065 101.609 8.69922C101.57 8.89453 101.551 9.10938 101.551 9.34375V9.53906C101.551 9.75065 101.58 9.94596 101.639 10.125C101.701 10.304 101.787 10.4587 101.897 10.5889C102.011 10.7191 102.148 10.82 102.308 10.8916C102.47 10.9632 102.654 10.999 102.859 10.999C103.113 10.999 103.349 10.9502 103.567 10.8525C103.789 10.7516 103.979 10.6003 104.139 10.3984L104.822 11.1406C104.712 11.3001 104.56 11.4531 104.368 11.5996C104.179 11.7461 103.951 11.8665 103.685 11.9609C103.418 12.0521 103.113 12.0977 102.771 12.0977ZM108.603 4.5V12H107.196V4.5H108.603ZM108.402 9.17285H108.017C108.02 8.80501 108.069 8.46647 108.163 8.15723C108.257 7.84473 108.393 7.57454 108.568 7.34668C108.744 7.11556 108.954 6.93652 109.198 6.80957C109.446 6.68262 109.719 6.61914 110.019 6.61914C110.279 6.61914 110.515 6.65658 110.727 6.73145C110.941 6.80306 111.125 6.92025 111.278 7.08301C111.435 7.24251 111.555 7.45247 111.64 7.71289C111.724 7.97331 111.767 8.28906 111.767 8.66016V12H110.351V8.65039C110.351 8.41602 110.316 8.2321 110.248 8.09863C110.183 7.96191 110.087 7.86589 109.96 7.81055C109.836 7.75195 109.683 7.72266 109.501 7.72266C109.299 7.72266 109.127 7.76009 108.983 7.83496C108.843 7.90983 108.731 8.014 108.646 8.14746C108.562 8.27767 108.5 8.43066 108.461 8.60645C108.422 8.78223 108.402 8.97103 108.402 9.17285ZM114.768 12.0977C114.357 12.0977 113.99 12.0326 113.664 11.9023C113.339 11.7689 113.062 11.585 112.834 11.3506C112.609 11.1162 112.437 10.8444 112.316 10.5352C112.196 10.2227 112.136 9.89062 112.136 9.53906V9.34375C112.136 8.94336 112.193 8.57715 112.307 8.24512C112.421 7.91309 112.583 7.625 112.795 7.38086C113.01 7.13672 113.27 6.94954 113.576 6.81934C113.882 6.68587 114.227 6.61914 114.611 6.61914C114.986 6.61914 115.318 6.68099 115.607 6.80469C115.897 6.92839 116.14 7.10417 116.335 7.33203C116.534 7.5599 116.683 7.83333 116.784 8.15234C116.885 8.4681 116.936 8.81966 116.936 9.20703V9.79297H112.736V8.85547H115.554V8.74805C115.554 8.55273 115.518 8.37858 115.446 8.22559C115.378 8.06934 115.274 7.94564 115.134 7.85449C114.994 7.76335 114.815 7.71777 114.597 7.71777C114.411 7.71777 114.252 7.75846 114.118 7.83984C113.985 7.92122 113.876 8.03516 113.791 8.18164C113.71 8.32812 113.648 8.50065 113.605 8.69922C113.566 8.89453 113.547 9.10938 113.547 9.34375V9.53906C113.547 9.75065 113.576 9.94596 113.635 10.125C113.697 10.304 113.783 10.4587 113.894 10.5889C114.007 10.7191 114.144 10.82 114.304 10.8916C114.466 10.9632 114.65 10.999 114.855 10.999C115.109 10.999 115.345 10.9502 115.563 10.8525C115.785 10.7516 115.975 10.6003 116.135 10.3984L116.818 11.1406C116.708 11.3001 116.556 11.4531 116.364 11.5996C116.175 11.7461 115.948 11.8665 115.681 11.9609C115.414 12.0521 115.109 12.0977 114.768 12.0977ZM118.643 7.86914V12H117.236V6.7168H118.56L118.643 7.86914ZM120.234 6.68262L120.21 7.98633C120.142 7.97656 120.059 7.96842 119.961 7.96191C119.867 7.95215 119.78 7.94727 119.702 7.94727C119.504 7.94727 119.331 7.97331 119.185 8.02539C119.041 8.07422 118.921 8.14746 118.823 8.24512C118.729 8.34277 118.657 8.46159 118.608 8.60156C118.563 8.74154 118.537 8.90104 118.53 9.08008L118.247 8.99219C118.247 8.65039 118.281 8.33626 118.35 8.0498C118.418 7.76009 118.517 7.50781 118.647 7.29297C118.781 7.07812 118.944 6.91211 119.136 6.79492C119.328 6.67773 119.548 6.61914 119.795 6.61914C119.873 6.61914 119.953 6.62565 120.034 6.63867C120.116 6.64844 120.182 6.66309 120.234 6.68262ZM122.732 12.0977C122.322 12.0977 121.954 12.0326 121.629 11.9023C121.303 11.7689 121.027 11.585 120.799 11.3506C120.574 11.1162 120.402 10.8444 120.281 10.5352C120.161 10.2227 120.101 9.89062 120.101 9.53906V9.34375C120.101 8.94336 120.158 8.57715 120.271 8.24512C120.385 7.91309 120.548 7.625 120.76 7.38086C120.975 7.13672 121.235 6.94954 121.541 6.81934C121.847 6.68587 122.192 6.61914 122.576 6.61914C122.951 6.61914 123.283 6.68099 123.572 6.80469C123.862 6.92839 124.104 7.10417 124.3 7.33203C124.498 7.5599 124.648 7.83333 124.749 8.15234C124.85 8.4681 124.9 8.81966 124.9 9.20703V9.79297H120.701V8.85547H123.519V8.74805C123.519 8.55273 123.483 8.37858 123.411 8.22559C123.343 8.06934 123.239 7.94564 123.099 7.85449C122.959 7.76335 122.78 7.71777 122.562 7.71777C122.376 7.71777 122.216 7.75846 122.083 7.83984C121.95 7.92122 121.84 8.03516 121.756 8.18164C121.674 8.32812 121.613 8.50065 121.57 8.69922C121.531 8.89453 121.512 9.10938 121.512 9.34375V9.53906C121.512 9.75065 121.541 9.94596 121.6 10.125C121.661 10.304 121.748 10.4587 121.858 10.5889C121.972 10.7191 122.109 10.82 122.269 10.8916C122.431 10.9632 122.615 10.999 122.82 10.999C123.074 10.999 123.31 10.9502 123.528 10.8525C123.75 10.7516 123.94 10.6003 124.1 10.3984L124.783 11.1406C124.673 11.3001 124.521 11.4531 124.329 11.5996C124.14 11.7461 123.912 11.8665 123.646 11.9609C123.379 12.0521 123.074 12.0977 122.732 12.0977Z" fill="white"/>
</g>
<defs>
<clipPath id="clip0_103_449">
<rect width="135" height="45" fill="white" transform="translate(0 1)"/>
</clipPath>
</defs>
</svg>
