<svg width="42" height="16" viewBox="0 0 42 16" fill="none" xmlns="http://www.w3.org/2000/svg">
<path d="M3.83822 5.04394C3.77398 5.04394 3.70975 4.97834 3.77398 4.91273L4.22362 4.38788C4.28786 4.32228 4.35209 4.25667 4.41633 4.25667H11.5463C11.6106 4.25667 11.6748 4.32228 11.6106 4.38788L11.2894 4.91273C11.2252 4.97834 11.1609 5.04394 11.0967 5.04394H3.83822ZM0.819209 6.94652C0.754974 6.94652 0.754974 6.88092 0.754974 6.81531L1.20461 6.29046C1.20461 6.22486 1.33308 6.15925 1.39732 6.15925H10.5186C10.5828 6.15925 10.647 6.22486 10.647 6.29046L10.5186 6.74971C10.5186 6.81531 10.3901 6.88092 10.3259 6.88092L0.819209 6.94652ZM5.70101 8.7835C5.63678 8.7835 5.57254 8.71789 5.63678 8.65228L5.89371 8.19304C5.95795 8.12743 6.02218 8.06183 6.08642 8.06183H10.0689C10.1332 8.06183 10.1974 8.12743 10.1974 8.19304L10.1332 8.65228C10.1332 8.71789 10.0689 8.7835 10.0047 8.7835H5.70101ZM26.4487 4.65031L23.1085 5.56879C22.7873 5.6344 22.7873 5.70001 22.5304 5.37197C22.2092 5.04394 22.0165 4.78152 21.5669 4.5847C20.2822 3.92864 19.0617 4.12546 17.9697 4.91273C16.6208 5.83122 15.9143 7.14334 15.9143 8.7835C15.9143 10.4237 17.0062 11.7358 18.6121 11.9982C19.961 12.195 21.1172 11.6702 22.0165 10.6205C22.2092 10.4237 22.3377 10.1612 22.5304 9.8332H18.6763C18.2267 9.8332 18.1625 9.57077 18.2909 9.24274C18.5479 8.58668 19.0617 7.53698 19.3187 7.01213C19.3829 6.88092 19.5114 6.6841 19.8325 6.6841H27.091C27.0268 7.20895 27.0268 7.7994 26.9625 8.32425C26.7698 9.76759 26.1917 11.1453 25.2925 12.3262C23.8793 14.2944 21.9523 15.4753 19.5756 15.8034C17.5843 16.0658 15.7858 15.6721 14.1799 14.4256C12.7025 13.3103 11.8675 11.7358 11.6106 9.8988C11.3536 7.66819 11.996 5.70001 13.2807 3.92864C14.6938 2.02606 16.5566 0.845148 18.869 0.385904C20.7318 0.0578734 22.5304 0.254692 24.2005 1.37C25.2925 2.09167 25.999 3.07576 26.5129 4.25667C26.7698 4.51909 26.7056 4.5847 26.4487 4.65031Z" fill="#00ACD7"/>
<path d="M33.0648 16.0003C31.2662 15.9347 29.5962 15.4099 28.183 14.229C27.0268 13.1793 26.256 11.8671 25.999 10.2926C25.6136 7.99637 26.256 5.96257 27.6049 4.1256C29.0823 2.15741 30.8166 1.17332 33.1933 0.714079C35.2488 0.320442 37.1758 0.582866 38.9101 1.76378C40.516 2.87908 41.4795 4.38803 41.7364 6.29061C42.0576 9.04607 41.2868 11.2767 39.424 13.2449C38.0751 14.6226 36.4692 15.4755 34.6064 15.8691C34.1568 15.8691 33.5787 15.9347 33.0648 16.0003ZM37.8181 7.73394C37.8181 7.47152 37.8181 7.2747 37.7539 7.07788C37.3685 5.04409 35.5699 3.92878 33.6429 4.38803C31.7801 4.84727 30.5597 6.02818 30.11 7.93076C29.7246 9.50531 30.4954 11.1455 31.9728 11.8015C33.0648 12.2608 34.1568 12.2608 35.2488 11.6703C36.8546 10.7518 37.7539 9.4397 37.8181 7.73394Z" fill="#00ACD7"/>
</svg>
