<svg width="19" height="43" viewBox="0 0 19 43" fill="none" xmlns="http://www.w3.org/2000/svg">
<path d="M9.18396 0.923828L10.2811 3.02848C10.5277 3.41686 10.795 3.76064 11.1097 4.0808C12.0283 5.01897 12.9006 6.00175 13.6842 7.05407C15.5431 9.54711 16.797 12.3157 17.6924 15.31C18.2294 17.1391 18.521 19.0154 18.5429 20.9127C18.6328 26.585 16.7289 31.4556 12.8903 35.5035C12.2633 36.1439 11.5927 36.7369 10.8733 37.2644C10.4931 37.2644 10.3132 36.9666 10.1565 36.6923C9.86484 36.1898 9.68627 35.6164 9.59635 35.0456C9.46145 34.3594 9.37281 33.6731 9.41649 32.9646V32.6444C9.38566 32.5762 9.05035 1.08522 9.18396 0.923828Z" fill="#599636"/>
<path d="M10.281 38.6578C10.326 38.133 10.5727 37.6973 10.8412 37.263C10.5714 37.1489 10.371 36.9219 10.2142 36.6686C10.0793 36.4403 9.96757 36.1661 9.88021 35.9142C9.56675 34.9537 9.49995 33.946 9.41002 32.9645V32.3701C9.29825 32.462 9.27513 33.2387 9.27513 33.3542C9.20975 34.3915 9.07498 35.4231 8.87174 36.4416C8.80493 36.8536 8.75997 37.2643 8.51202 37.6304C8.51202 37.6763 8.51202 37.7223 8.53386 37.7905C8.93725 39.0029 9.04774 40.2376 9.11583 41.4959V41.9552C9.11583 42.5037 9.09399 42.3882 9.53977 42.5719C9.71963 42.6401 9.92004 42.6637 10.0999 42.8002C10.2348 42.8002 10.2566 42.686 10.2566 42.5942L10.1898 41.8397V39.7351C10.168 39.3677 10.2348 39.0029 10.2798 38.6591L10.281 38.6578Z" fill="#C2BFBF"/>
<path d="M9.18394 0.854223C9.13898 0.762374 9.09402 0.831917 9.04905 0.876529C9.07089 1.33577 8.91416 1.74516 8.66879 2.13617C8.399 2.52456 8.04186 2.82241 7.68343 3.14257C5.69217 4.90344 4.12486 7.03039 2.86972 9.40927C1.19963 12.6109 0.33889 16.0421 0.0947994 19.6543C-0.0169681 20.9573 0.49819 25.555 0.900297 26.8815C1.99742 30.4033 3.96812 33.3542 6.52079 35.9155C7.14772 36.5322 7.81832 37.1043 8.51205 37.6541C8.71375 37.6541 8.73559 37.4704 8.78184 37.3339C8.87027 37.0419 8.93768 36.7437 8.98353 36.4417L9.43317 33.0118L9.18394 0.854223Z" fill="#6CAC48"/>
</svg>
