<svg width="15" height="15" viewBox="0 0 15 15" fill="none" xmlns="http://www.w3.org/2000/svg">
<path d="M8.85143 0.583984L7.08378 1.62793L7.32652 2.0347L8.42197 1.38764L8.10454 3.4079L8.3006 3.73529L10.1336 2.65212L9.89087 2.24535L8.73006 2.92916L9.04438 0.909832L8.85143 0.583984ZM4.25491 1.63349C3.17051 2.23223 2.2668 3.10739 1.63711 4.1686C1.00741 5.22982 0.674557 6.43862 0.672913 7.67018C0.672913 9.50507 1.40736 11.2648 2.71468 12.5623C4.02201 13.8597 5.79512 14.5887 7.64395 14.5887C9.15121 14.5879 10.6176 14.1023 11.8234 13.2047C13.0291 12.307 13.9092 11.0457 14.3318 9.60982C13.7279 10.2445 13.0001 10.7504 12.1927 11.0967C11.3853 11.4429 10.5152 11.6222 9.63568 11.6236C7.9189 11.6236 6.27244 10.9467 5.0585 9.74196C3.84456 8.53717 3.16257 6.90312 3.16257 5.19929C3.16366 3.92968 3.54377 2.68886 4.25491 1.63349ZM11.8639 3.24111L11.6492 3.75073L13.0216 4.31904L10.8961 5.42785L10.7249 5.83554L13.0185 6.78683L13.2332 6.27721L11.7799 5.67494L13.9054 4.56613L14.0766 4.15843L11.8639 3.24111ZM8.28504 5.21782L5.24143 6.29883L5.49351 6.99995L7.37943 6.32972L6.27775 9.35347L6.48004 9.9125L9.63568 8.79443L9.3836 8.09332L7.38565 8.8037L8.48732 5.77995L8.28504 5.21782Z" fill="white"/>
</svg>
