<svg width="38" height="42" viewBox="0 0 38 42" fill="none" xmlns="http://www.w3.org/2000/svg">
<path d="M17.6299 0.536134C18.6577 -0.058258 19.968 -0.0608822 20.9701 0.536134L36.3144 9.37066C37.274 9.92176 37.9164 11.0148 37.9074 12.1445V29.8582C37.9138 31.0351 37.2085 32.1518 36.1962 32.6924L20.9341 41.4862C20.4121 41.7808 19.8224 41.9274 19.2262 41.9105C18.63 41.8937 18.0491 41.7141 17.5438 41.3904L12.9639 38.6875C12.6518 38.4972 12.301 38.3463 12.0801 38.0379C12.2753 37.7703 12.6222 37.7362 12.9048 37.6181C13.542 37.4108 14.1253 37.0932 14.7111 36.7573C14.8588 36.6523 15.04 36.6917 15.1813 36.7862L19.0867 39.0929C19.3655 39.2569 19.6482 39.0404 19.8871 38.9026L34.8729 30.2649C35.0579 30.1731 35.1607 29.9736 35.1453 29.7663V12.2232C35.1659 11.987 35.0335 11.7719 34.8241 11.6761L19.6006 2.92026C19.5129 2.85829 19.4088 2.82498 19.3021 2.82475C19.1955 2.82451 19.0912 2.85736 19.0032 2.91895L3.80157 11.6931C3.59602 11.7889 3.4547 12.0015 3.4804 12.2377V29.7808C3.46241 29.9881 3.57032 30.1836 3.7566 30.2728L7.81878 32.6149C8.58188 33.0348 9.51842 33.271 10.3586 32.9627C10.7263 32.8211 11.0428 32.5682 11.2657 32.2378C11.4887 31.9073 11.6074 31.5152 11.606 31.1139L11.6099 13.6757C11.5919 13.4173 11.8308 13.2034 12.0762 13.2296H14.0289C14.2859 13.2231 14.4876 13.5012 14.4529 13.761L14.449 31.3094C14.4503 32.8682 13.8234 34.5634 12.4115 35.3284C10.6721 36.2469 8.5215 36.054 6.80259 35.171L2.43466 32.7042C1.40692 32.1793 0.71704 31.0456 0.723464 29.87V12.1563C0.727737 11.5806 0.8827 11.0165 1.17229 10.5225C1.46188 10.0286 1.87555 9.62273 2.37043 9.34705L17.6299 0.536134ZM22.0544 12.815C24.273 12.6838 26.6484 12.7284 28.6448 13.845C30.1903 14.7005 31.0472 16.4955 31.0754 18.2511C31.0317 18.4873 30.7902 18.6185 30.5693 18.6015C29.9269 18.6001 29.282 18.6106 28.6371 18.5975C28.3635 18.608 28.2054 18.3508 28.1708 18.1042C27.9858 17.2644 27.5374 16.4338 26.764 16.0284C25.577 15.4209 24.1998 15.451 22.9048 15.4642C21.9593 15.5167 20.9431 15.5993 20.1428 16.1662C19.5261 16.5965 19.3411 17.4783 19.5608 18.1632C19.7663 18.6658 20.3355 18.8271 20.7992 18.9767C23.4739 19.6905 26.3067 19.6328 28.9313 20.5605C30.0168 20.9436 31.0793 21.6889 31.4518 22.8501C31.9374 24.4063 31.7255 26.2669 30.6425 27.516C29.7638 28.5447 28.4842 29.0906 27.206 29.4081C25.5063 29.7952 23.7437 29.8044 22.0184 29.6312C20.3958 29.4422 18.7078 29.0066 17.4552 27.8782C16.3838 26.9282 15.8622 25.4481 15.9136 24.0205C15.9264 23.7791 16.1615 23.6111 16.3889 23.6308H18.3159C18.5754 23.6125 18.7656 23.8408 18.7784 24.0901C18.8979 24.8773 19.1921 25.7302 19.8755 26.1895C21.1936 27.0581 22.847 26.9977 24.3552 27.0227C25.6052 26.9662 27.0081 26.9492 28.0294 26.1042C28.569 25.6226 28.727 24.8183 28.5819 24.1255C28.4238 23.5403 27.811 23.2687 27.2972 23.0758C24.6571 22.2229 21.7923 22.5326 19.178 21.5669C18.1168 21.1837 17.0903 20.4594 16.6831 19.3454C16.114 17.7709 16.3748 15.8198 17.5734 14.6126C18.7296 13.412 20.4254 12.9488 22.0312 12.7835L22.0544 12.815Z" fill="#8CC84B"/>
</svg>
