<svg width="43" height="45" viewBox="0 0 43 45" fill="none" xmlns="http://www.w3.org/2000/svg">
<path d="M31.5001 31.9505C31.7619 29.7248 31.6832 29.4001 33.3051 29.7593L33.7178 29.797C34.9656 29.8544 36.5971 29.592 37.5719 29.1376C39.6354 28.1601 40.8591 26.5265 38.8245 26.9562C34.1835 27.9338 33.8463 26.3281 33.8463 26.3281C38.749 18.8982 40.7997 9.46727 39.0284 7.15957C34.2044 0.861378 25.8524 3.8399 25.7126 3.91863L25.6677 3.92683C24.7523 3.73001 23.7407 3.6152 22.5684 3.5988C20.4679 3.56599 18.8749 4.16137 17.6641 5.0979C17.6641 5.0979 2.76657 -1.17077 3.45869 12.9821C3.60643 15.9934 7.6821 35.7803 12.5478 29.7937C14.3287 27.6057 16.047 25.7573 16.047 25.7573C16.8981 26.3363 17.921 26.6315 18.9921 26.5249L19.0756 26.4527C19.0509 26.7362 19.0623 27.0218 19.1094 27.3023C17.8568 28.7325 18.2261 28.9835 15.721 29.51C13.187 30.043 14.6772 30.9927 15.6471 31.242C16.8258 31.5438 19.5526 31.9702 21.3961 29.3361L21.3222 29.6363C21.8136 30.0381 21.7799 32.5229 21.8522 34.2976C21.9244 36.0722 22.0384 37.7304 22.3933 38.7063C22.7482 39.6822 23.1642 42.1998 26.4562 41.4946C29.207 40.8926 31.3107 40.025 31.5034 31.9653" fill="black"/>
<path d="M31.5001 31.9505C31.7619 29.7248 31.6832 29.4001 33.3051 29.7593L33.7178 29.797C34.9656 29.8544 36.5971 29.592 37.5719 29.1376C39.6354 28.1601 40.8591 26.5265 38.8245 26.9562C34.1835 27.9338 33.8463 26.3281 33.8463 26.3281C38.749 18.8982 40.7997 9.46727 39.0284 7.15957C34.2044 0.861379 25.8524 3.8399 25.7126 3.91863L25.6677 3.92683C24.7523 3.73001 23.7407 3.6152 22.5684 3.5988C20.4679 3.56599 18.8749 4.16137 17.6641 5.0979C17.6641 5.0979 2.76657 -1.17077 3.45869 12.9821C3.60643 15.9934 7.68209 35.7803 12.5478 29.7937C14.3287 27.6057 16.047 25.7573 16.047 25.7573C16.8981 26.3363 17.921 26.6315 18.9921 26.5249L19.0756 26.4527C19.0509 26.7362 19.0623 27.0218 19.1094 27.3023C17.8568 28.7325 18.2261 28.9835 15.721 29.51C13.187 30.043 14.6772 30.9927 15.6471 31.242C16.8258 31.5438 19.5526 31.9702 21.3961 29.3361L21.3222 29.6363C21.8136 30.0381 21.7799 32.5229 21.8522 34.2976C21.9244 36.0722 22.0384 37.7304 22.3933 38.7063C22.7482 39.6822 23.1641 42.1998 26.4562 41.4946C29.207 40.8926 31.3107 40.025 31.5034 31.9653" stroke="black" stroke-width="5.3725"/>
<path d="M38.8104 26.9708C34.1694 27.9483 33.8322 26.3426 33.8322 26.3426C38.7349 18.9127 40.7856 9.48178 39.0159 7.17408C34.1919 0.875888 25.8399 3.85605 25.7002 3.93314L25.6552 3.94134C24.6351 3.73228 23.5979 3.6219 22.5575 3.61167C20.457 3.57886 18.864 4.17424 17.6532 5.11077C17.6532 5.11077 2.75408 -1.1579 3.44781 12.995C3.59555 16.0063 7.67121 35.7931 12.537 29.8066C14.3291 27.6055 16.0474 25.757 16.0474 25.757C16.8985 26.336 17.9214 26.6312 18.9925 26.5246L19.076 26.4525C19.0515 26.736 19.0628 27.0215 19.1097 27.3021C17.8572 28.7323 18.2265 28.9832 15.7214 29.5097C13.1873 30.0428 14.6776 30.9924 15.6475 31.2417C16.8262 31.5435 19.5529 31.9699 21.3965 29.3359L21.3226 29.636C21.814 30.0378 22.1576 32.2488 22.0998 34.253C22.042 36.2573 22.0035 37.6318 22.3889 38.7077C22.7743 39.7836 23.1597 42.2012 26.4517 41.496C29.2025 40.894 30.6269 39.331 30.8277 36.7297C30.969 34.8796 31.2869 35.1518 31.3094 33.4986L31.5663 32.7146C31.8602 30.2051 31.6145 29.3965 33.3087 29.7738L33.7214 29.8115C34.9692 29.8689 36.6023 29.6065 37.5594 29.1522C39.6229 28.1746 40.845 26.541 38.8104 26.9708Z" fill="#336791"/>
<path d="M21.5938 28.3929C21.4653 33.0607 21.6259 37.7614 22.0723 38.8899C22.5188 40.0183 23.4775 42.2522 26.7711 41.5338C29.5219 40.9318 30.524 39.7657 30.9575 37.1923L31.974 28.9636M17.6466 4.99277C17.6466 4.99277 2.73783 -1.23326 3.43156 12.9196C3.5793 15.931 7.65496 35.7178 12.5207 29.7312C14.2968 27.5449 15.9026 25.8342 15.9026 25.8342M25.6984 3.85614C25.1845 4.02016 33.991 0.567633 38.9981 7.10037C40.7645 9.40807 38.717 18.839 33.8144 26.2689" stroke="white" stroke-width="1.79" stroke-linecap="round" stroke-linejoin="round"/>
<path d="M33.816 26.2658C33.816 26.2658 34.1371 27.8731 38.7941 26.8923C40.8287 26.4626 39.6035 28.0962 37.5415 29.0737C35.849 29.8774 32.0527 30.0824 31.9901 28.9753C31.8295 26.1132 33.9878 26.9825 33.832 26.2658C33.6907 25.6196 32.724 24.9865 32.0881 23.4053C31.5308 22.0276 24.4442 11.4486 34.0536 13.0182C34.4069 12.9444 31.5485 3.66936 22.5557 3.53487C13.5629 3.40038 13.8471 14.8273 13.8471 14.8273" stroke="white" stroke-width="1.79" stroke-linecap="round" stroke-linejoin="bevel"/>
<path d="M19.0774 27.2466C17.8248 28.6768 18.1942 28.9277 15.689 29.4542C13.155 29.9873 14.6452 30.9369 15.6152 31.1862C16.7939 31.488 19.5206 31.9144 21.3641 29.2787C21.9262 28.475 21.3609 27.1957 20.5901 26.871C20.2176 26.7135 19.7197 26.5167 19.0806 27.2482L19.0774 27.2466Z" stroke="white" stroke-width="1.79" stroke-linejoin="round"/>
<path d="M18.9955 27.222C18.8671 26.3806 19.2653 25.3818 19.6909 24.2107C20.33 22.4557 21.8042 20.7007 20.6255 15.1291C19.7471 10.9795 13.8488 14.2648 13.8488 14.8274C13.8488 15.3899 14.1153 17.6812 13.7524 20.3465C13.2755 23.8269 15.9203 26.7693 18.965 26.4692" stroke="white" stroke-width="1.79" stroke-linecap="round" stroke-linejoin="round"/>
<path d="M17.5919 14.7437C17.5646 14.9356 17.9372 15.4489 18.4205 15.5178C18.9039 15.5867 19.3166 15.1865 19.3439 14.993C19.3712 14.7994 18.9987 14.5895 18.5153 14.5206C18.0319 14.4517 17.616 14.5534 17.5919 14.7437Z" fill="white" stroke="white" stroke-width="0.5975"/>
<path d="M32.308 14.3516C32.3337 14.5435 31.9628 15.0569 31.4794 15.1257C30.996 15.1946 30.5801 14.7944 30.556 14.6009C30.532 14.4074 30.9013 14.1974 31.3847 14.1285C31.868 14.0596 32.2839 14.1613 32.308 14.3516Z" fill="white" stroke="white" stroke-width="0.2975"/>
<path d="M34.036 13.0212C34.1163 14.5302 33.718 15.5553 33.6666 17.161C33.5928 19.4933 34.7554 22.1635 33.0034 24.8369" stroke="white" stroke-width="1.79" stroke-linecap="round" stroke-linejoin="round"/>
</svg>
