<svg width="43" height="40" viewBox="0 0 43 40" fill="none" xmlns="http://www.w3.org/2000/svg">
<path d="M21.4514 23.584C23.4789 23.584 25.1224 21.9054 25.1224 19.8346C25.1224 17.7639 23.4789 16.0852 21.4514 16.0852C19.424 16.0852 17.7804 17.7639 17.7804 19.8346C17.7804 21.9054 19.424 23.584 21.4514 23.584Z" fill="#00D8FF"/>
<path fill-rule="evenodd" clip-rule="evenodd" d="M21.4515 12.2112C26.3803 12.2112 30.9591 12.9335 34.4114 14.1474C38.571 15.6101 41.1285 17.827 41.1285 19.8345C41.1285 21.9265 38.4181 24.2817 33.9512 25.7933C30.5742 26.936 26.1302 27.5326 21.4515 27.5326C16.6546 27.5326 12.1121 26.9726 8.69701 25.7807C4.37628 24.2723 1.77386 21.8866 1.77386 19.8345C1.77386 17.8433 4.21574 15.6435 8.31686 14.1831C11.7821 12.9491 16.4739 12.2112 21.4509 12.2112H21.4515Z" stroke="#00D8FF" stroke-width="2.73408"/>
<path fill-rule="evenodd" clip-rule="evenodd" d="M14.954 16.0448C17.4163 11.684 20.3163 7.9937 23.0706 5.54556C26.3891 2.59593 29.5472 1.44077 31.2498 2.44354C33.0241 3.48861 33.6676 7.06343 32.7182 11.7706C32.001 15.3295 30.2863 19.5593 27.9489 23.6989C25.5524 27.9431 22.8083 31.6825 20.0915 34.1079C16.6537 37.1772 13.3301 38.288 11.5896 37.2628C9.90069 36.2688 9.25484 33.0087 10.065 28.6505C10.7496 24.9681 12.4675 20.4483 14.9532 16.0448L14.954 16.0448Z" stroke="#00D8FF" stroke-width="2.73408"/>
<path fill-rule="evenodd" clip-rule="evenodd" d="M14.9601 23.7101C12.4908 19.3542 10.8096 14.9442 10.1079 11.2844C9.26311 6.87486 9.86037 3.50341 11.5614 2.49772C13.334 1.44959 16.6877 2.66544 20.2064 5.85648C22.8668 8.26904 25.5986 11.8981 27.9427 16.0339C30.3461 20.274 32.1474 24.5697 32.8481 28.185C33.7348 32.76 33.0172 36.2556 31.2783 37.2837C29.5911 38.2813 26.5036 37.2251 23.2114 34.3315C20.4298 31.8868 17.4538 28.1093 14.9601 23.71V23.7101Z" stroke="#00D8FF" stroke-width="2.73408"/>
</svg>
