<svg width="16" height="15" viewBox="0 0 16 15" fill="none" xmlns="http://www.w3.org/2000/svg">
<path d="M4.35735 13.0269C4.22846 13.249 4.30471 13.534 4.52679 13.6629C4.74888 13.7918 5.0339 13.7161 5.16279 13.4934L5.76067 12.4587C5.88957 12.2366 5.81332 11.9515 5.59123 11.8227C5.36915 11.6938 5.08413 11.7694 4.95523 11.9921L4.35735 13.0269ZM8.07473 11.4922C9.2251 11.4922 10.2659 11.0263 11.0199 10.2723C11.7733 9.51828 12.2399 8.47683 12.2399 7.32707C12.2399 6.1767 11.7739 5.13586 11.0199 4.38185C10.2659 3.62785 9.2251 3.16189 8.07473 3.16189C6.92436 3.16189 5.88352 3.62785 5.12951 4.38185C4.37611 5.13586 3.90955 6.1767 3.90955 7.32707C3.90955 8.47744 4.37551 9.51828 5.12951 10.2723C5.88352 11.0257 6.92496 11.4922 8.07473 11.4922ZM10.3906 9.64294C9.79817 10.2354 8.97941 10.6021 8.07473 10.6021C7.17004 10.6021 6.35129 10.2354 5.75886 9.64294C5.16643 9.0505 4.79971 8.23175 4.79971 7.32707C4.79971 6.42238 5.16643 5.60363 5.75886 5.0112C6.35129 4.41876 7.17004 4.05205 8.07473 4.05205C8.97941 4.05205 9.79817 4.41876 10.3906 5.0112C10.983 5.60363 11.3497 6.42238 11.3497 7.32707C11.3497 8.23175 10.983 9.0505 10.3906 9.64294ZM7.70438 14.1222C7.70438 14.38 7.91316 14.5887 8.17094 14.5887C8.42873 14.5887 8.63751 14.38 8.63751 14.1222V12.927C8.63751 12.6692 8.42873 12.4605 8.17094 12.4605C7.91316 12.4605 7.70438 12.6692 7.70438 12.927V14.1222ZM11.1531 13.3954C11.2808 13.6175 11.5646 13.6943 11.7873 13.5667C12.0093 13.439 12.0862 13.1552 11.9585 12.9325L11.3606 11.8977C11.233 11.6756 10.9491 11.5987 10.7265 11.7264C10.5044 11.8541 10.4275 12.1379 10.5552 12.3606L11.1531 13.3954ZM13.7745 11.0444C13.9966 11.1733 14.2816 11.0971 14.4105 10.875C14.5394 10.6529 14.4638 10.3679 14.2411 10.239L13.2063 9.64112C12.9842 9.51223 12.6992 9.58847 12.5703 9.81056C12.4414 10.0326 12.5171 10.3177 12.7398 10.4466L13.7745 11.0444ZM14.8698 7.69741C15.1276 7.69741 15.3364 7.48864 15.3364 7.23085C15.3364 6.97306 15.1276 6.76429 14.8698 6.76429H13.6747C13.4169 6.76429 13.2081 6.97306 13.2081 7.23085C13.2081 7.48864 13.4169 7.69741 13.6747 7.69741H14.8698ZM14.1431 4.24872C14.3652 4.12104 14.442 3.83722 14.3143 3.61453C14.1866 3.39245 13.9028 3.31559 13.6801 3.44328L12.6453 4.04116C12.4233 4.16884 12.3464 4.45265 12.4741 4.67534C12.6018 4.89743 12.8856 4.97428 13.1083 4.8466L14.1431 4.24872ZM11.7921 1.62725C11.921 1.40517 11.8447 1.12015 11.6227 0.991252C11.4006 0.862357 11.1156 0.938 10.9867 1.16069L10.3888 2.19548C10.2599 2.41757 10.3361 2.70259 10.5582 2.83148C10.7803 2.96038 11.0653 2.88473 11.1942 2.66204L11.7921 1.62725ZM8.44507 0.531951C8.44507 0.274162 8.2363 0.065388 7.97851 0.065388C7.72072 0.065388 7.51195 0.274162 7.51195 0.531951V1.7271C7.51195 1.98489 7.72072 2.19366 7.97851 2.19366C8.2363 2.19366 8.44507 1.98489 8.44507 1.7271V0.531951ZM4.99638 1.25872C4.8687 1.03664 4.58489 0.959785 4.36219 1.08747C4.14011 1.21515 4.06326 1.49896 4.19094 1.72166L4.78882 2.75645C4.9165 2.97853 5.20031 3.05538 5.423 2.9277C5.64509 2.80002 5.72194 2.5162 5.59426 2.29351L4.99638 1.25872ZM2.37492 3.60969C2.15283 3.4808 1.86781 3.55704 1.73891 3.77913C1.61002 4.00122 1.68566 4.28624 1.90835 4.41513L2.94314 5.01301C3.16523 5.14191 3.45025 5.06566 3.57914 4.84357C3.70804 4.62149 3.6324 4.33647 3.4097 4.20757L2.37492 3.60969ZM1.27961 6.95672C1.02182 6.95672 0.813049 7.16549 0.813049 7.42328C0.813049 7.68107 1.02182 7.88985 1.27961 7.88985H2.47476C2.73255 7.88985 2.94133 7.68107 2.94133 7.42328C2.94133 7.16549 2.73255 6.95672 2.47476 6.95672H1.27961ZM2.00639 10.4054C1.7843 10.5331 1.70745 10.8169 1.83513 11.0396C1.96282 11.2617 2.24663 11.3385 2.46932 11.2109L3.50411 10.613C3.72619 10.4853 3.80305 10.2015 3.67536 9.97879C3.54768 9.7567 3.26387 9.67985 3.04117 9.80753L2.00639 10.4054Z" fill="black"/>
</svg>
