<svg width="42" height="26" viewBox="0 0 42 26" fill="none" xmlns="http://www.w3.org/2000/svg">
<path fill-rule="evenodd" clip-rule="evenodd" d="M11.0045 9.01576C12.3746 3.41758 15.8009 0.618164 21.282 0.618164C29.504 0.618164 30.5317 6.91636 34.6427 7.96606C37.3836 8.66608 39.7815 7.61638 41.837 4.81696C40.4668 10.4151 37.0406 13.2146 31.5595 13.2146C23.3375 13.2146 22.3098 6.91636 18.1988 5.86666C15.4579 5.16664 13.06 6.21634 11.0045 9.01576ZM0.727051 21.6121C2.09717 16.014 5.52342 13.2146 11.0045 13.2146C19.2265 13.2146 20.2543 19.5128 24.3652 20.5625C27.1061 21.2625 29.504 20.2128 31.5595 17.4134C30.1894 23.0115 26.7631 25.8109 21.282 25.8109C13.06 25.8109 12.0323 19.5128 7.92128 18.4631C5.18041 17.763 2.78255 18.8127 0.727051 21.6121Z" fill="url(#paint0_linear_18_369)"/>
<defs>
<linearGradient id="paint0_linear_18_369" x1="0.727052" y1="-21.7752" x2="43.1273" y2="47.4136" gradientUnits="userSpaceOnUse">
<stop stop-color="#2383AE"/>
<stop offset="1" stop-color="#6DD7B9"/>
</linearGradient>
</defs>
</svg>
