<svg width="42" height="43" viewBox="0 0 42 43" fill="none" xmlns="http://www.w3.org/2000/svg">
<path d="M0.41803 21.0847V42.0786H41.5292V0.0893555H0.41803V21.0847ZM33.5481 19.4117C34.5919 19.6781 35.3884 20.1517 36.1194 20.9246C36.4984 21.3379 37.0592 22.091 37.1048 22.2708C37.1176 22.3233 35.33 23.5501 34.2463 24.237C34.2078 24.2633 34.0504 24.0907 33.8738 23.8237C33.3451 23.0364 32.7908 22.6973 31.9423 22.6376C30.6961 22.551 29.8868 23.2175 29.8996 24.3302C29.8996 24.6569 29.9446 24.8498 30.0756 25.1175C30.3499 25.6974 30.8593 26.0438 32.4574 26.7511C35.4006 28.0435 36.6596 28.8964 37.442 30.1101C38.3156 31.4629 38.5121 33.6227 37.9186 35.2287C37.266 36.9751 35.6479 38.1613 33.3708 38.5549C32.6662 38.6815 30.9955 38.6619 30.2388 38.5221C28.588 38.2223 27.0219 37.3891 26.0558 36.2961C25.6769 35.8697 24.9401 34.7563 24.9857 34.6756C25.005 34.6494 25.1752 34.5424 25.3647 34.429L26.8915 33.5301L28.0734 32.8301L28.3214 33.2041C28.667 33.744 29.4243 34.4834 29.881 34.7301C31.1927 35.4367 32.9938 35.3363 33.8809 34.5234C34.2598 34.1705 34.4159 33.8037 34.4159 33.2638C34.4159 32.777 34.3581 32.5638 34.1095 32.1977C33.7896 31.7319 33.137 31.3382 31.2832 30.5182C29.1622 29.5852 28.2488 29.0053 27.4138 28.0855C26.9307 27.5521 26.474 26.6992 26.2845 25.9861C26.1278 25.393 26.0886 23.9064 26.2126 23.3067C26.6494 21.2073 28.1961 19.7542 30.4283 19.3212C31.1528 19.1814 32.837 19.2346 33.5475 19.4143L33.5481 19.4117ZM23.8969 21.1634L23.9098 22.8823H18.5591V38.4112H14.7744V22.8823H9.42367V21.1962L9.46863 19.4642C9.4879 19.4379 12.7446 19.4248 16.6924 19.4314L23.877 19.4511L23.8969 21.1634Z" fill="#007ACC"/>
</svg>
